<?xml version="1.0" encoding="UTF-8" standalone="no"?>
<!DOCTYPE svg PUBLIC "-//W3C//DTD SVG 1.1//EN"
 "http://www.w3.org/Graphics/SVG/1.1/DTD/svg11.dtd">
<!-- Generated by graphviz version 2.42.4 (0)
 -->
<!-- Title: G Pages: 1 -->
<svg width="961pt" height="633pt"
 viewBox="0.00 0.00 961.00 633.00" xmlns="http://www.w3.org/2000/svg" xmlns:xlink="http://www.w3.org/1999/xlink">
<g id="graph0" class="graph" transform="scale(1 1) rotate(0) translate(18 615)">
<title>G</title>
<g id="clust1" class="cluster">
<title>cluster_runtime</title>
<path fill="transparent" stroke="#64748b" d="M182,-155C182,-155 671,-155 671,-155 677,-155 683,-161 683,-167 683,-167 683,-422 683,-422 683,-428 677,-434 671,-434 671,-434 182,-434 182,-434 176,-434 170,-428 170,-422 170,-422 170,-167 170,-167 170,-161 176,-155 182,-155"/>
<text text-anchor="middle" x="426.5" y="-418.8" font-family="Arial" font-size="14.00">Ingestion runtime</text>
</g>
<g id="clust2" class="cluster">
<title>cluster_source</title>
<path fill="transparent" stroke="#94a3b8" stroke-dasharray="5,2" d="M321,-8C321,-8 873.5,-8 873.5,-8 879.5,-8 885.5,-14 885.5,-20 885.5,-20 885.5,-71 885.5,-71 885.5,-77 879.5,-83 873.5,-83 873.5,-83 321,-83 321,-83 315,-83 309,-77 309,-71 309,-71 309,-20 309,-20 309,-14 315,-8 321,-8"/>
<text text-anchor="middle" x="597.25" y="-67.8" font-family="Arial" font-size="14.00">Source custody</text>
</g>
<g id="clust3" class="cluster">
<title>cluster_git</title>
<path fill="transparent" stroke="#334155" d="M734.5,-91C734.5,-91 903.5,-91 903.5,-91 909.5,-91 915.5,-97 915.5,-103 915.5,-103 915.5,-426 915.5,-426 915.5,-432 909.5,-438 903.5,-438 903.5,-438 734.5,-438 734.5,-438 728.5,-438 722.5,-432 722.5,-426 722.5,-426 722.5,-103 722.5,-103 722.5,-97 728.5,-91 734.5,-91"/>
<text text-anchor="middle" x="819" y="-422.8" font-family="Arial" font-size="14.00">Authoritative logical records</text>
</g>
<g id="clust4" class="cluster">
<title>cluster_projection</title>
<path fill="transparent" stroke="#94a3b8" stroke-dasharray="5,2" d="M733,-446C733,-446 905,-446 905,-446 911,-446 917,-452 917,-458 917,-458 917,-577 917,-577 917,-583 911,-589 905,-589 905,-589 733,-589 733,-589 727,-589 721,-583 721,-577 721,-577 721,-458 721,-458 721,-452 727,-446 733,-446"/>
<text text-anchor="middle" x="819" y="-573.8" font-family="Arial" font-size="14.00">Disposable projections</text>
</g>
<!-- Operator -->
<g id="node1" class="node">
<title>Operator</title>
<path fill="#f8fafc" stroke="#475569" d="M98.5,-420C98.5,-420 25.5,-420 25.5,-420 19.5,-420 13.5,-414 13.5,-408 13.5,-408 13.5,-396 13.5,-396 13.5,-390 19.5,-384 25.5,-384 25.5,-384 98.5,-384 98.5,-384 104.5,-384 110.5,-390 110.5,-396 110.5,-396 110.5,-408 110.5,-408 110.5,-414 104.5,-420 98.5,-420"/>
<text text-anchor="middle" x="62" y="-399.5" font-family="Arial" font-size="10.00">Ingestion operator</text>
</g>
<!-- UI -->
<g id="node4" class="node">
<title>UI</title>
<path fill="#f8fafc" stroke="#475569" d="M251,-386C251,-386 190,-386 190,-386 184,-386 178,-380 178,-374 178,-374 178,-362 178,-362 178,-356 184,-350 190,-350 190,-350 251,-350 251,-350 257,-350 263,-356 263,-362 263,-362 263,-374 263,-374 263,-380 257,-386 251,-386"/>
<text text-anchor="middle" x="220.5" y="-365.5" font-family="Arial" font-size="10.00">Live dashboard</text>
</g>
<!-- Operator&#45;&gt;UI -->
<g id="edge1" class="edge">
<title>Operator&#45;&gt;UI</title>
<path fill="none" stroke="#64748b" d="M110.81,-391.61C129.86,-387.47 151.77,-382.72 170.9,-378.56"/>
<polygon fill="#64748b" stroke="#64748b" points="171.49,-380.94 177.81,-377.06 170.45,-376.15 171.49,-380.94"/>
</g>
<!-- Reviewer -->
<g id="node2" class="node">
<title>Reviewer</title>
<path fill="#f8fafc" stroke="#475569" d="M112,-352C112,-352 12,-352 12,-352 6,-352 0,-346 0,-340 0,-340 0,-328 0,-328 0,-322 6,-316 12,-316 12,-316 112,-316 112,-316 118,-316 124,-322 124,-328 124,-328 124,-340 124,-340 124,-346 118,-352 112,-352"/>
<text text-anchor="middle" x="62" y="-331.5" font-family="Arial" font-size="10.00">Documentation reviewer</text>
</g>
<!-- Reviewer&#45;&gt;UI -->
<g id="edge2" class="edge">
<title>Reviewer&#45;&gt;UI</title>
<path fill="none" stroke="#64748b" d="M124.4,-347.34C139.71,-350.67 155.92,-354.19 170.54,-357.36"/>
<polygon fill="#64748b" stroke="#64748b" points="170.21,-359.8 177.57,-358.89 171.25,-355.01 170.21,-359.8"/>
</g>
<!-- Asker -->
<g id="node3" class="node">
<title>Asker</title>
<path fill="#f8fafc" stroke="#475569" d="M646.5,-131C646.5,-131 562.5,-131 562.5,-131 556.5,-131 550.5,-125 550.5,-119 550.5,-119 550.5,-107 550.5,-107 550.5,-101 556.5,-95 562.5,-95 562.5,-95 646.5,-95 646.5,-95 652.5,-95 658.5,-101 658.5,-107 658.5,-107 658.5,-119 658.5,-119 658.5,-125 652.5,-131 646.5,-131"/>
<text text-anchor="middle" x="604.5" y="-110.5" font-family="Arial" font-size="10.00">Future Docent asker</text>
</g>
<!-- DOC -->
<g id="node16" class="node">
<title>DOC</title>
<path fill="#f8fafc" stroke="#475569" d="M859,-203C859,-203 779,-203 779,-203 773,-203 767,-197 767,-191 767,-191 767,-179 767,-179 767,-173 773,-167 779,-167 779,-167 859,-167 859,-167 865,-167 871,-173 871,-179 871,-179 871,-191 871,-191 871,-197 865,-203 859,-203"/>
<text text-anchor="middle" x="819" y="-182.5" font-family="Arial" font-size="10.00">Documents + plans</text>
</g>
<!-- Asker&#45;&gt;DOC -->
<g id="edge3" class="edge">
<title>Asker&#45;&gt;DOC</title>
<path fill="none" stroke="#64748b" d="M658.57,-130.98C689.45,-141.44 728.39,-154.64 760.06,-165.37"/>
<polygon fill="#64748b" stroke="#64748b" points="759.28,-167.69 766.7,-167.62 760.86,-163.05 759.28,-167.69"/>
</g>
<!-- WF -->
<g id="node5" class="node">
<title>WF</title>
<path fill="#f8fafc" stroke="#475569" d="M443.5,-369C443.5,-369 353.5,-369 353.5,-369 347.5,-369 341.5,-363 341.5,-357 341.5,-357 341.5,-345 341.5,-345 341.5,-339 347.5,-333 353.5,-333 353.5,-333 443.5,-333 443.5,-333 449.5,-333 455.5,-339 455.5,-345 455.5,-345 455.5,-357 455.5,-357 455.5,-363 449.5,-369 443.5,-369"/>
<text text-anchor="middle" x="398.5" y="-348.5" font-family="Arial" font-size="10.00">Workflow orchestrator</text>
</g>
<!-- UI&#45;&gt;WF -->
<g id="edge4" class="edge">
<title>UI&#45;&gt;WF</title>
<path fill="none" stroke="#64748b" d="M263.21,-363.97C284.4,-361.92 310.59,-359.39 334.2,-357.11"/>
<polygon fill="#64748b" stroke="#64748b" points="334.71,-359.53 341.44,-356.42 334.24,-354.65 334.71,-359.53"/>
</g>
<!-- AR -->
<g id="node6" class="node">
<title>AR</title>
<path fill="#f8fafc" stroke="#475569" d="M663,-199C663,-199 546,-199 546,-199 540,-199 534,-193 534,-187 534,-187 534,-175 534,-175 534,-169 540,-163 546,-163 546,-163 663,-163 663,-163 669,-163 675,-169 675,-175 675,-175 675,-187 675,-187 675,-193 669,-199 663,-199"/>
<text text-anchor="middle" x="604.5" y="-178.5" font-family="Arial" font-size="10.00">Fresh&#45;context agent runtime</text>
</g>
<!-- WF&#45;&gt;AR -->
<g id="edge5" class="edge">
<title>WF&#45;&gt;AR</title>
<path fill="none" stroke="#64748b" d="M414.03,-332.78C437.12,-304.72 484.65,-250.46 534,-215 540.26,-210.5 547.22,-206.31 554.23,-202.51"/>
<polygon fill="#64748b" stroke="#64748b" points="555.61,-204.56 560.67,-199.14 553.33,-200.22 555.61,-204.56"/>
</g>
<!-- RET -->
<g id="node7" class="node">
<title>RET</title>
<path fill="#f8fafc" stroke="#475569" d="M638.5,-267C638.5,-267 570.5,-267 570.5,-267 564.5,-267 558.5,-261 558.5,-255 558.5,-255 558.5,-243 558.5,-243 558.5,-237 564.5,-231 570.5,-231 570.5,-231 638.5,-231 638.5,-231 644.5,-231 650.5,-237 650.5,-243 650.5,-243 650.5,-255 650.5,-255 650.5,-261 644.5,-267 638.5,-267"/>
<text text-anchor="middle" x="604.5" y="-246.5" font-family="Arial" font-size="10.00">Retrieval service</text>
</g>
<!-- WF&#45;&gt;RET -->
<g id="edge6" class="edge">
<title>WF&#45;&gt;RET</title>
<path fill="none" stroke="#64748b" d="M434.83,-332.98C461.92,-319.2 500.26,-299.78 534,-283 542.34,-278.85 551.26,-274.46 559.83,-270.25"/>
<polygon fill="#64748b" stroke="#64748b" points="561.1,-272.36 566.3,-267.08 558.94,-267.96 561.1,-272.36"/>
</g>
<!-- GW -->
<g id="node8" class="node">
<title>GW</title>
<path fill="#f8fafc" stroke="#475569" d="M651,-403C651,-403 558,-403 558,-403 552,-403 546,-397 546,-391 546,-391 546,-379 546,-379 546,-373 552,-367 558,-367 558,-367 651,-367 651,-367 657,-367 663,-373 663,-379 663,-379 663,-391 663,-391 663,-397 657,-403 651,-403"/>
<text text-anchor="middle" x="604.5" y="-382.5" font-family="Arial" font-size="10.00">Graph / claim gateway</text>
</g>
<!-- WF&#45;&gt;GW -->
<g id="edge7" class="edge">
<title>WF&#45;&gt;GW</title>
<path fill="none" stroke="#64748b" d="M455.51,-360.34C481.28,-364.63 512.01,-369.75 538.76,-374.21"/>
<polygon fill="#64748b" stroke="#64748b" points="538.53,-376.66 545.84,-375.39 539.33,-371.82 538.53,-376.66"/>
</g>
<!-- GIT -->
<g id="node9" class="node">
<title>GIT</title>
<path fill="#f8fafc" stroke="#475569" d="M637.5,-335C637.5,-335 571.5,-335 571.5,-335 565.5,-335 559.5,-329 559.5,-323 559.5,-323 559.5,-311 559.5,-311 559.5,-305 565.5,-299 571.5,-299 571.5,-299 637.5,-299 637.5,-299 643.5,-299 649.5,-305 649.5,-311 649.5,-311 649.5,-323 649.5,-323 649.5,-329 643.5,-335 637.5,-335"/>
<text text-anchor="middle" x="604.5" y="-314.5" font-family="Arial" font-size="10.00">Git / PR adapter</text>
</g>
<!-- WF&#45;&gt;GIT -->
<g id="edge8" class="edge">
<title>WF&#45;&gt;GIT</title>
<path fill="none" stroke="#64748b" d="M455.51,-341.66C485.76,-336.62 522.83,-330.44 552.31,-325.53"/>
<polygon fill="#64748b" stroke="#64748b" points="552.74,-327.94 559.24,-324.38 551.93,-323.11 552.74,-327.94"/>
</g>
<!-- EV -->
<g id="node19" class="node">
<title>EV</title>
<path fill="#f8fafc" stroke="#475569" d="M880,-558C880,-558 758,-558 758,-558 752,-558 746,-552 746,-546 746,-546 746,-534 746,-534 746,-528 752,-522 758,-522 758,-522 880,-522 880,-522 886,-522 892,-528 892,-534 892,-534 892,-546 892,-546 892,-552 886,-558 880,-558"/>
<text text-anchor="middle" x="819" y="-537.5" font-family="Arial" font-size="10.00">Events, queues, graph layout</text>
</g>
<!-- WF&#45;&gt;EV -->
<g id="edge23" class="edge">
<title>WF&#45;&gt;EV</title>
<path fill="none" stroke="#64748b" d="M433.59,-369.2C491.59,-399.76 613.67,-462.34 721,-506 732.51,-510.68 744.93,-515.33 756.91,-519.62"/>
<polygon fill="#64748b" stroke="#64748b" points="756.1,-521.93 763.52,-521.96 757.74,-517.31 756.1,-521.93"/>
</g>
<!-- UNIT -->
<g id="node12" class="node">
<title>UNIT</title>
<path fill="#f8fafc" stroke="#475569" d="M865.5,-52C865.5,-52 772.5,-52 772.5,-52 766.5,-52 760.5,-46 760.5,-40 760.5,-40 760.5,-28 760.5,-28 760.5,-22 766.5,-16 772.5,-16 772.5,-16 865.5,-16 865.5,-16 871.5,-16 877.5,-22 877.5,-28 877.5,-28 877.5,-40 877.5,-40 877.5,-46 871.5,-52 865.5,-52"/>
<text text-anchor="middle" x="819" y="-31.5" font-family="Arial" font-size="10.00">Structural source units</text>
</g>
<!-- RET&#45;&gt;UNIT -->
<g id="edge13" class="edge">
<title>RET&#45;&gt;UNIT</title>
<path fill="none" stroke="#64748b" d="M650.82,-236.86C662.67,-231.79 674.49,-224.73 683,-215 723.2,-169.06 682.06,-130.02 721,-83 730.51,-71.51 743.4,-62.45 756.68,-55.4"/>
<polygon fill="#64748b" stroke="#64748b" points="758.06,-57.45 763.21,-52.1 755.86,-53.07 758.06,-57.45"/>
</g>
<!-- IDX -->
<g id="node18" class="node">
<title>IDX</title>
<path fill="#f8fafc" stroke="#475569" d="M897,-490C897,-490 741,-490 741,-490 735,-490 729,-484 729,-478 729,-478 729,-466 729,-466 729,-460 735,-454 741,-454 741,-454 897,-454 897,-454 903,-454 909,-460 909,-466 909,-466 909,-478 909,-478 909,-484 903,-490 897,-490"/>
<text text-anchor="middle" x="819" y="-469.5" font-family="Arial" font-size="10.00">Exact / lexical / optional vector index</text>
</g>
<!-- RET&#45;&gt;IDX -->
<g id="edge12" class="edge">
<title>RET&#45;&gt;IDX</title>
<path fill="none" stroke="#64748b" d="M650.74,-260.69C662.73,-265.77 674.64,-272.94 683,-283 730.53,-340.22 669.27,-392.54 721,-446 722.13,-447.17 723.31,-448.29 724.53,-449.36"/>
<polygon fill="#64748b" stroke="#64748b" points="723.12,-451.36 730.14,-453.75 726.14,-447.51 723.12,-451.36"/>
</g>
<!-- Q -->
<g id="node13" class="node">
<title>Q</title>
<path fill="#f8fafc" stroke="#475569" d="M867.5,-339C867.5,-339 770.5,-339 770.5,-339 764.5,-339 758.5,-333 758.5,-327 758.5,-327 758.5,-315 758.5,-315 758.5,-309 764.5,-303 770.5,-303 770.5,-303 867.5,-303 867.5,-303 873.5,-303 879.5,-309 879.5,-315 879.5,-315 879.5,-327 879.5,-327 879.5,-333 873.5,-339 867.5,-339"/>
<text text-anchor="middle" x="819" y="-318.5" font-family="Arial" font-size="10.00">Questions + obligations</text>
</g>
<!-- GW&#45;&gt;Q -->
<g id="edge14" class="edge">
<title>GW&#45;&gt;Q</title>
<path fill="none" stroke="#64748b" d="M663.01,-367.68C690.32,-359.46 723.11,-349.58 751.49,-341.03"/>
<polygon fill="#64748b" stroke="#64748b" points="752.23,-343.37 758.22,-339 750.81,-338.68 752.23,-343.37"/>
</g>
<!-- C -->
<g id="node14" class="node">
<title>C</title>
<path fill="#f8fafc" stroke="#475569" d="M854.5,-271C854.5,-271 783.5,-271 783.5,-271 777.5,-271 771.5,-265 771.5,-259 771.5,-259 771.5,-247 771.5,-247 771.5,-241 777.5,-235 783.5,-235 783.5,-235 854.5,-235 854.5,-235 860.5,-235 866.5,-241 866.5,-247 866.5,-247 866.5,-259 866.5,-259 866.5,-265 860.5,-271 854.5,-271"/>
<text text-anchor="middle" x="819" y="-250.5" font-family="Arial" font-size="10.00">Claims + reviews</text>
</g>
<!-- GW&#45;&gt;C -->
<g id="edge15" class="edge">
<title>GW&#45;&gt;C</title>
<path fill="none" stroke="#64748b" d="M659,-366.83C667.59,-362.47 675.96,-357.23 683,-351 707.78,-329.08 695.4,-307.96 721,-287 733.45,-276.8 749.17,-269.57 764.31,-264.48"/>
<polygon fill="#64748b" stroke="#64748b" points="765.28,-266.75 771.21,-262.29 763.79,-262.07 765.28,-266.75"/>
</g>
<!-- A -->
<g id="node15" class="node">
<title>A</title>
<path fill="#f8fafc" stroke="#475569" d="M857,-407C857,-407 781,-407 781,-407 775,-407 769,-401 769,-395 769,-395 769,-383 769,-383 769,-377 775,-371 781,-371 781,-371 857,-371 857,-371 863,-371 869,-377 869,-383 869,-383 869,-395 869,-395 869,-401 863,-407 857,-407"/>
<text text-anchor="middle" x="819" y="-386.5" font-family="Arial" font-size="10.00">Answers + validity</text>
</g>
<!-- GW&#45;&gt;A -->
<g id="edge16" class="edge">
<title>GW&#45;&gt;A</title>
<path fill="none" stroke="#64748b" d="M663.01,-386.08C693.62,-386.66 731.12,-387.36 761.56,-387.94"/>
<polygon fill="#64748b" stroke="#64748b" points="761.7,-390.39 768.74,-388.07 761.79,-385.49 761.7,-390.39"/>
</g>
<!-- GW&#45;&gt;DOC -->
<g id="edge17" class="edge">
<title>GW&#45;&gt;DOC</title>
<path fill="none" stroke="#64748b" d="M662.8,-366.95C670.34,-362.67 677.39,-357.41 683,-351 723.2,-305.06 679.08,-263.38 721,-219 731.43,-207.96 745.64,-200.51 759.96,-195.47"/>
<polygon fill="#64748b" stroke="#64748b" points="761.09,-197.68 766.99,-193.19 759.57,-193.02 761.09,-197.68"/>
</g>
<!-- GIT&#45;&gt;Q -->
<g id="edge18" class="edge">
<title>GIT&#45;&gt;Q</title>
<path fill="none" stroke="#64748b" d="M656.72,-317.96C685.04,-318.5 720.58,-319.17 751.08,-319.74"/>
<polygon fill="#64748b" stroke="#64748b" points="656.58,-315.51 649.53,-317.83 656.48,-320.41 656.58,-315.51"/>
<polygon fill="#64748b" stroke="#64748b" points="751.27,-322.19 758.31,-319.88 751.36,-317.3 751.27,-322.19"/>
</g>
<!-- GIT&#45;&gt;C -->
<g id="edge19" class="edge">
<title>GIT&#45;&gt;C</title>
<path fill="none" stroke="#64748b" d="M656.37,-301.68C689.03,-291.84 731.37,-279.09 764.52,-269.11"/>
<polygon fill="#64748b" stroke="#64748b" points="655.53,-299.37 649.53,-303.74 656.94,-304.07 655.53,-299.37"/>
<polygon fill="#64748b" stroke="#64748b" points="765.45,-271.38 771.45,-267.02 764.04,-266.69 765.45,-271.38"/>
</g>
<!-- GIT&#45;&gt;A -->
<g id="edge20" class="edge">
<title>GIT&#45;&gt;A</title>
<path fill="none" stroke="#64748b" d="M656.2,-334.18C688.05,-344.97 729.15,-358.9 761.96,-370.01"/>
<polygon fill="#64748b" stroke="#64748b" points="656.95,-331.84 649.53,-331.92 655.37,-336.49 656.95,-331.84"/>
<polygon fill="#64748b" stroke="#64748b" points="761.41,-372.41 768.83,-372.34 762.98,-367.77 761.41,-372.41"/>
</g>
<!-- GIT&#45;&gt;DOC -->
<g id="edge21" class="edge">
<title>GIT&#45;&gt;DOC</title>
<path fill="none" stroke="#64748b" d="M656.31,-300.16C665.83,-295.55 675.22,-289.88 683,-283 707.78,-261.08 695.4,-239.96 721,-219 732.33,-209.72 746.37,-202.9 760.21,-197.91"/>
<polygon fill="#64748b" stroke="#64748b" points="655.06,-298.04 649.71,-303.18 657.1,-302.5 655.06,-298.04"/>
<polygon fill="#64748b" stroke="#64748b" points="761.14,-200.18 766.97,-195.6 759.56,-195.54 761.14,-200.18"/>
</g>
<!-- CFG -->
<g id="node17" class="node">
<title>CFG</title>
<path fill="#f8fafc" stroke="#475569" d="M895.5,-135C895.5,-135 742.5,-135 742.5,-135 736.5,-135 730.5,-129 730.5,-123 730.5,-123 730.5,-111 730.5,-111 730.5,-105 736.5,-99 742.5,-99 742.5,-99 895.5,-99 895.5,-99 901.5,-99 907.5,-105 907.5,-111 907.5,-111 907.5,-123 907.5,-123 907.5,-129 901.5,-135 895.5,-135"/>
<text text-anchor="middle" x="819" y="-114.5" font-family="Arial" font-size="10.00">Agents, workflows, policies, fixtures</text>
</g>
<!-- GIT&#45;&gt;CFG -->
<g id="edge22" class="edge">
<title>GIT&#45;&gt;CFG</title>
<path fill="none" stroke="#64748b" d="M656.2,-302.41C666.18,-297.59 675.78,-291.25 683,-283 723.2,-237.06 679.08,-195.38 721,-151 725.5,-146.24 730.7,-142.14 736.32,-138.62"/>
<polygon fill="#64748b" stroke="#64748b" points="654.99,-300.27 649.61,-305.37 657,-304.74 654.99,-300.27"/>
<polygon fill="#64748b" stroke="#64748b" points="737.72,-140.64 742.56,-135.02 735.27,-136.39 737.72,-140.64"/>
</g>
<!-- RAW -->
<g id="node10" class="node">
<title>RAW</title>
<path fill="#f8fafc" stroke="#475569" d="M480,-48.73C480,-50.53 443.47,-52 398.5,-52 353.53,-52 317,-50.53 317,-48.73 317,-48.73 317,-19.27 317,-19.27 317,-17.47 353.53,-16 398.5,-16 443.47,-16 480,-17.47 480,-19.27 480,-19.27 480,-48.73 480,-48.73"/>
<path fill="none" stroke="#475569" d="M480,-48.73C480,-46.92 443.47,-45.45 398.5,-45.45 353.53,-45.45 317,-46.92 317,-48.73"/>
<text text-anchor="middle" x="398.5" y="-31.5" font-family="Arial" font-size="10.00">Immutable source replay capsule</text>
</g>
<!-- REP -->
<g id="node11" class="node">
<title>REP</title>
<path fill="#f8fafc" stroke="#475569" d="M656,-52C656,-52 553,-52 553,-52 547,-52 541,-46 541,-40 541,-40 541,-28 541,-28 541,-22 547,-16 553,-16 553,-16 656,-16 656,-16 662,-16 668,-22 668,-28 668,-28 668,-40 668,-40 668,-46 662,-52 656,-52"/>
<text text-anchor="middle" x="604.5" y="-31.5" font-family="Arial" font-size="10.00">Qualified representations</text>
</g>
<!-- RAW&#45;&gt;REP -->
<g id="edge9" class="edge">
<title>RAW&#45;&gt;REP</title>
<path fill="none" stroke="#64748b" d="M480.13,-34C497.76,-34 516.3,-34 533.48,-34"/>
<polygon fill="#64748b" stroke="#64748b" points="533.75,-36.45 540.75,-34 533.75,-31.55 533.75,-36.45"/>
</g>
<!-- REP&#45;&gt;UNIT -->
<g id="edge10" class="edge">
<title>REP&#45;&gt;UNIT</title>
<path fill="none" stroke="#64748b" d="M668.11,-34C694.85,-34 726.07,-34 753.07,-34"/>
<polygon fill="#64748b" stroke="#64748b" points="753.2,-36.45 760.2,-34 753.2,-31.55 753.2,-36.45"/>
</g>
<!-- UNIT&#45;&gt;IDX -->
<g id="edge11" class="edge">
<title>UNIT&#45;&gt;IDX</title>
<path fill="none" stroke="#64748b" d="M760.32,-50.03C736.96,-59.88 713.03,-75.3 702,-99 686.49,-132.35 686.49,-396.65 702,-430 706.63,-439.95 714.04,-447.61 722.94,-453.49"/>
<polygon fill="#64748b" stroke="#64748b" points="721.72,-455.61 728.99,-457.1 724.23,-451.41 721.72,-455.61"/>
</g>
<!-- EV&#45;&gt;UI -->
<g id="edge24" class="edge">
<title>EV&#45;&gt;UI</title>
<path fill="none" stroke="#64748b" d="M745.88,-527.19C688.09,-516.28 605.2,-499.2 534,-479 439.07,-452.07 331.18,-411.44 270.23,-387.53"/>
<polygon fill="#64748b" stroke="#64748b" points="270.81,-385.13 263.4,-384.84 269.01,-389.69 270.81,-385.13"/>
</g>
</g>
</svg>
