<?xml version="1.0" encoding="UTF-8" standalone="no"?>
<!DOCTYPE svg PUBLIC "-//W3C//DTD SVG 1.1//EN"
 "http://www.w3.org/Graphics/SVG/1.1/DTD/svg11.dtd">
<!-- Generated by graphviz version 2.42.4 (0)
 -->
<!-- Title: G Pages: 1 -->
<svg width="516pt" height="629pt"
 viewBox="0.00 0.00 515.80 629.00" xmlns="http://www.w3.org/2000/svg" xmlns:xlink="http://www.w3.org/1999/xlink">
<g id="graph0" class="graph" transform="scale(1 1) rotate(0) translate(18 611)">
<title>G</title>
<!-- S -->
<g id="node1" class="node">
<title>S</title>
<path fill="#eef2ff" stroke="#475569" d="M297.8,-593C297.8,-593 231.8,-593 231.8,-593 225.8,-593 219.8,-587 219.8,-581 219.8,-581 219.8,-569 219.8,-569 219.8,-563 225.8,-557 231.8,-557 231.8,-557 297.8,-557 297.8,-557 303.8,-557 309.8,-563 309.8,-569 309.8,-569 309.8,-581 309.8,-581 309.8,-587 303.8,-593 297.8,-593"/>
<text text-anchor="middle" x="264.8" y="-572.5" font-family="Arial" font-size="10.00">Source snapshot</text>
</g>
<!-- F -->
<g id="node2" class="node">
<title>F</title>
<path fill="#f8fafc" stroke="#475569" d="M286.8,-516C286.8,-516 242.8,-516 242.8,-516 236.8,-516 230.8,-510 230.8,-504 230.8,-504 230.8,-492 230.8,-492 230.8,-486 236.8,-480 242.8,-480 242.8,-480 286.8,-480 286.8,-480 292.8,-480 298.8,-486 298.8,-492 298.8,-492 298.8,-504 298.8,-504 298.8,-510 292.8,-516 286.8,-516"/>
<text text-anchor="middle" x="264.8" y="-495.5" font-family="Arial" font-size="10.00">Source files</text>
</g>
<!-- S&#45;&gt;F -->
<g id="edge1" class="edge">
<title>S&#45;&gt;F</title>
<path fill="none" stroke="#64748b" d="M264.8,-556.98C264.8,-547.08 264.8,-534.43 264.8,-523.47"/>
<polygon fill="#64748b" stroke="#64748b" points="267.25,-523.21 264.8,-516.21 262.35,-523.21 267.25,-523.21"/>
</g>
<!-- U -->
<g id="node3" class="node">
<title>U</title>
<path fill="#f8fafc" stroke="#475569" d="M310.3,-439C310.3,-439 219.3,-439 219.3,-439 213.3,-439 207.3,-433 207.3,-427 207.3,-427 207.3,-415 207.3,-415 207.3,-409 213.3,-403 219.3,-403 219.3,-403 310.3,-403 310.3,-403 316.3,-403 322.3,-409 322.3,-415 322.3,-415 322.3,-427 322.3,-427 322.3,-433 316.3,-439 310.3,-439"/>
<text text-anchor="middle" x="264.8" y="-418.5" font-family="Arial" font-size="10.00">Structural source units</text>
</g>
<!-- F&#45;&gt;U -->
<g id="edge2" class="edge">
<title>F&#45;&gt;U</title>
<path fill="none" stroke="#64748b" d="M264.8,-479.98C264.8,-470.08 264.8,-457.43 264.8,-446.47"/>
<polygon fill="#64748b" stroke="#64748b" points="267.25,-446.21 264.8,-439.21 262.35,-446.21 267.25,-446.21"/>
</g>
<!-- E -->
<g id="node4" class="node">
<title>E</title>
<path fill="#fff7ed" stroke="#475569" d="M323.3,-362C323.3,-362 206.3,-362 206.3,-362 200.3,-362 194.3,-356 194.3,-350 194.3,-350 194.3,-338 194.3,-338 194.3,-332 200.3,-326 206.3,-326 206.3,-326 323.3,-326 323.3,-326 329.3,-326 335.3,-332 335.3,-338 335.3,-338 335.3,-350 335.3,-350 335.3,-356 329.3,-362 323.3,-362"/>
<text text-anchor="middle" x="264.8" y="-341.5" font-family="Arial" font-size="10.00">Evidence packets + verdicts</text>
</g>
<!-- U&#45;&gt;E -->
<g id="edge3" class="edge">
<title>U&#45;&gt;E</title>
<path fill="none" stroke="#64748b" d="M264.8,-402.98C264.8,-393.08 264.8,-380.43 264.8,-369.47"/>
<polygon fill="#64748b" stroke="#64748b" points="267.25,-369.21 264.8,-362.21 262.35,-369.21 267.25,-369.21"/>
</g>
<!-- C -->
<g id="node5" class="node">
<title>C</title>
<path fill="#ecfdf5" stroke="#475569" d="M211.3,-285C211.3,-285 146.3,-285 146.3,-285 140.3,-285 134.3,-279 134.3,-273 134.3,-273 134.3,-261 134.3,-261 134.3,-255 140.3,-249 146.3,-249 146.3,-249 211.3,-249 211.3,-249 217.3,-249 223.3,-255 223.3,-261 223.3,-261 223.3,-273 223.3,-273 223.3,-279 217.3,-285 211.3,-285"/>
<text text-anchor="middle" x="178.8" y="-264.5" font-family="Arial" font-size="10.00">Accepted claims</text>
</g>
<!-- E&#45;&gt;C -->
<g id="edge4" class="edge">
<title>E&#45;&gt;C</title>
<path fill="none" stroke="#64748b" d="M245.28,-325.98C233.05,-315.32 217.17,-301.46 203.99,-289.97"/>
<polygon fill="#64748b" stroke="#64748b" points="205.42,-287.97 198.53,-285.21 202.2,-291.66 205.42,-287.97"/>
</g>
<!-- Q -->
<g id="node6" class="node">
<title>Q</title>
<path fill="#fefce8" stroke="#475569" d="M388.8,-199C388.8,-199 292.8,-199 292.8,-199 286.8,-199 280.8,-193 280.8,-187 280.8,-187 280.8,-175 280.8,-175 280.8,-169 286.8,-163 292.8,-163 292.8,-163 388.8,-163 388.8,-163 394.8,-163 400.8,-169 400.8,-175 400.8,-175 400.8,-187 400.8,-187 400.8,-193 394.8,-199 388.8,-199"/>
<text text-anchor="middle" x="340.8" y="-178.5" font-family="Arial" font-size="10.00">Question demand graph</text>
</g>
<!-- C&#45;&gt;Q -->
<g id="edge12" class="edge">
<title>C&#45;&gt;Q</title>
<path fill="none" stroke="#64748b" stroke-dasharray="5,2" d="M201.32,-248.8C214.43,-239.27 231.54,-227.64 247.8,-219 259.69,-212.68 272.9,-206.8 285.55,-201.67"/>
<polygon fill="#64748b" stroke="#64748b" points="286.51,-203.92 292.1,-199.05 284.69,-199.37 286.51,-203.92"/>
<text text-anchor="middle" x="278.3" y="-221.8" font-family="Arial" font-size="9.00">answers facets</text>
</g>
<!-- A -->
<g id="node7" class="node">
<title>A</title>
<path fill="#f8fafc" stroke="#475569" d="M160.8,-113C160.8,-113 52.8,-113 52.8,-113 46.8,-113 40.8,-107 40.8,-101 40.8,-101 40.8,-89 40.8,-89 40.8,-83 46.8,-77 52.8,-77 52.8,-77 160.8,-77 160.8,-77 166.8,-77 172.8,-83 172.8,-89 172.8,-89 172.8,-101 172.8,-101 172.8,-107 166.8,-113 160.8,-113"/>
<text text-anchor="middle" x="106.8" y="-92.5" font-family="Arial" font-size="10.00">Question&#45;specific answers</text>
</g>
<!-- C&#45;&gt;A -->
<g id="edge6" class="edge">
<title>C&#45;&gt;A</title>
<path fill="none" stroke="#64748b" d="M134.99,-248.87C113.64,-238.03 89.99,-221.71 77.8,-199 64.13,-173.52 77.8,-140.95 90.62,-119.33"/>
<polygon fill="#64748b" stroke="#64748b" points="92.77,-120.51 94.36,-113.27 88.6,-117.94 92.77,-120.51"/>
<text text-anchor="middle" x="108.3" y="-178.8" font-family="Arial" font-size="9.00">composed into</text>
</g>
<!-- P -->
<g id="node8" class="node">
<title>P</title>
<path fill="#f8fafc" stroke="#475569" d="M345.8,-113C345.8,-113 229.8,-113 229.8,-113 223.8,-113 217.8,-107 217.8,-101 217.8,-101 217.8,-89 217.8,-89 217.8,-83 223.8,-77 229.8,-77 229.8,-77 345.8,-77 345.8,-77 351.8,-77 357.8,-83 357.8,-89 357.8,-89 357.8,-101 357.8,-101 357.8,-107 351.8,-113 345.8,-113"/>
<text text-anchor="middle" x="287.8" y="-92.5" font-family="Arial" font-size="10.00">Information architecture plan</text>
</g>
<!-- C&#45;&gt;P -->
<g id="edge8" class="edge">
<title>C&#45;&gt;P</title>
<path fill="none" stroke="#64748b" d="M177.32,-248.59C175.95,-220.25 177.69,-164.15 208.8,-133 215.28,-126.51 223.11,-121.02 231.3,-116.42"/>
<polygon fill="#64748b" stroke="#64748b" points="232.58,-118.52 237.61,-113.07 230.28,-114.19 232.58,-118.52"/>
<text text-anchor="middle" x="224.8" y="-178.8" font-family="Arial" font-size="9.00">canonical homes</text>
</g>
<!-- D -->
<g id="node9" class="node">
<title>D</title>
<path fill="#ecfdf5" stroke="#475569" d="M347.8,-36C347.8,-36 227.8,-36 227.8,-36 221.8,-36 215.8,-30 215.8,-24 215.8,-24 215.8,-12 215.8,-12 215.8,-6 221.8,0 227.8,0 227.8,0 347.8,0 347.8,0 353.8,0 359.8,-6 359.8,-12 359.8,-12 359.8,-24 359.8,-24 359.8,-30 353.8,-36 347.8,-36"/>
<text text-anchor="middle" x="287.8" y="-15.5" font-family="Arial" font-size="10.00">Reader&#45;facing documentation</text>
</g>
<!-- C&#45;&gt;D -->
<g id="edge11" class="edge">
<title>C&#45;&gt;D</title>
<path fill="none" stroke="#64748b" d="M134.24,-252.76C118.2,-246.86 100.46,-238.96 85.8,-229 42.37,-199.48 24.16,-191.8 4.8,-143 -4.22,-120.27 -0.67,-99.44 24.8,-77 51.79,-53.21 141.37,-37.06 208.54,-27.97"/>
<polygon fill="#64748b" stroke="#64748b" points="209.17,-30.35 215.78,-27 208.52,-25.5 209.17,-30.35"/>
<text text-anchor="middle" x="38.3" y="-135.8" font-family="Arial" font-size="9.00">traceable claims</text>
</g>
<!-- Q&#45;&gt;E -->
<g id="edge5" class="edge">
<title>Q&#45;&gt;E</title>
<path fill="none" stroke="#64748b" d="M332.72,-199.11C319.11,-227.95 291.55,-286.33 276.05,-319.17"/>
<polygon fill="#64748b" stroke="#64748b" points="273.7,-318.39 272.93,-325.77 278.13,-320.49 273.7,-318.39"/>
<text text-anchor="middle" x="345.8" y="-264.8" font-family="Arial" font-size="9.00">asks for evidence</text>
</g>
<!-- Q&#45;&gt;A -->
<g id="edge7" class="edge">
<title>Q&#45;&gt;A</title>
<path fill="none" stroke="#64748b" d="M293.16,-162.9C254.89,-149.16 201.11,-129.86 161.16,-115.51"/>
<polygon fill="#64748b" stroke="#64748b" points="161.78,-113.14 154.37,-113.08 160.13,-117.75 161.78,-113.14"/>
<text text-anchor="middle" x="260.3" y="-135.8" font-family="Arial" font-size="9.00">goals + facets</text>
</g>
<!-- Q&#45;&gt;P -->
<g id="edge9" class="edge">
<title>Q&#45;&gt;P</title>
<path fill="none" stroke="#64748b" d="M329.82,-162.6C321.87,-150.01 311.06,-132.88 302.4,-119.14"/>
<polygon fill="#64748b" stroke="#64748b" points="304.39,-117.71 298.58,-113.1 300.25,-120.32 304.39,-117.71"/>
<text text-anchor="middle" x="360.3" y="-135.8" font-family="Arial" font-size="9.00">demand + navigation</text>
</g>
<!-- P&#45;&gt;D -->
<g id="edge10" class="edge">
<title>P&#45;&gt;D</title>
<path fill="none" stroke="#64748b" d="M287.8,-76.98C287.8,-67.08 287.8,-54.43 287.8,-43.47"/>
<polygon fill="#64748b" stroke="#64748b" points="290.25,-43.21 287.8,-36.21 285.35,-43.21 290.25,-43.21"/>
</g>
<!-- D&#45;&gt;Q -->
<g id="edge13" class="edge">
<title>D&#45;&gt;Q</title>
<path fill="none" stroke="#64748b" stroke-dasharray="5,2" d="M320.94,-36.03C352.77,-54.72 398.01,-88.13 411.8,-133 415.04,-143.56 410.34,-151.96 402.05,-158.57"/>
<polygon fill="#64748b" stroke="#64748b" points="400.19,-156.87 395.8,-162.85 402.96,-160.92 400.19,-156.87"/>
<text text-anchor="middle" x="441.3" y="-92.8" font-family="Arial" font-size="9.00">resolves questions</text>
</g>
</g>
</svg>
