<?xml version="1.0" encoding="UTF-8" standalone="no"?>
<!DOCTYPE svg PUBLIC "-//W3C//DTD SVG 1.1//EN"
 "http://www.w3.org/Graphics/SVG/1.1/DTD/svg11.dtd">
<!-- Generated by graphviz version 2.42.4 (0)
 -->
<!-- Title: G Pages: 1 -->
<svg width="600pt" height="727pt"
 viewBox="0.00 0.00 600.00 727.00" xmlns="http://www.w3.org/2000/svg" xmlns:xlink="http://www.w3.org/1999/xlink">
<g id="graph0" class="graph" transform="scale(1 1) rotate(0) translate(18 709)">
<title>G</title>
<!-- Q -->
<g id="node1" class="node">
<title>Q</title>
<path fill="#eef2ff" stroke="#475569" d="M552,-691C552,-691 402,-691 402,-691 396,-691 390,-685 390,-679 390,-679 390,-667 390,-667 390,-661 396,-655 402,-655 402,-655 552,-655 552,-655 558,-655 564,-661 564,-667 564,-667 564,-679 564,-679 564,-685 558,-691 552,-691"/>
<text text-anchor="middle" x="477" y="-670.5" font-family="Arial" font-size="10.00">Question + goals/facets + obligation</text>
</g>
<!-- R -->
<g id="node2" class="node">
<title>R</title>
<path fill="#f8fafc" stroke="#475569" d="M533,-618C533,-618 421,-618 421,-618 415,-618 409,-612 409,-606 409,-606 409,-594 409,-594 409,-588 415,-582 421,-582 421,-582 533,-582 533,-582 539,-582 545,-588 545,-594 545,-594 545,-606 545,-606 545,-612 539,-618 533,-618"/>
<text text-anchor="middle" x="477" y="-603" font-family="Arial" font-size="10.00">Researcher</text>
<text text-anchor="middle" x="477" y="-592" font-family="Arial" font-size="10.00">references + search receipt</text>
</g>
<!-- Q&#45;&gt;R -->
<g id="edge1" class="edge">
<title>Q&#45;&gt;R</title>
<path fill="none" stroke="#64748b" d="M477,-654.81C477,-645.92 477,-634.91 477,-625.17"/>
<polygon fill="#64748b" stroke="#64748b" points="479.45,-625.03 477,-618.03 474.55,-625.03 479.45,-625.03"/>
</g>
<!-- EC -->
<g id="node3" class="node">
<title>EC</title>
<path fill="#fff7ed" stroke="#475569" d="M446,-545C446,-545 356,-545 356,-545 350,-545 344,-539 344,-533 344,-533 344,-521 344,-521 344,-515 350,-509 356,-509 356,-509 446,-509 446,-509 452,-509 458,-515 458,-521 458,-521 458,-533 458,-533 458,-539 452,-545 446,-545"/>
<text text-anchor="middle" x="401" y="-530" font-family="Arial" font-size="10.00">Evidence Critic</text>
<text text-anchor="middle" x="401" y="-519" font-family="Arial" font-size="10.00">facet/reference verdict</text>
</g>
<!-- R&#45;&gt;EC -->
<g id="edge2" class="edge">
<title>R&#45;&gt;EC</title>
<path fill="none" stroke="#64748b" d="M458.6,-581.81C448.33,-572.22 435.44,-560.17 424.45,-549.91"/>
<polygon fill="#64748b" stroke="#64748b" points="426.02,-548.02 419.23,-545.03 422.67,-551.6 426.02,-548.02"/>
</g>
<!-- V -->
<g id="node4" class="node">
<title>V</title>
<path fill="#fff7ed" stroke="#475569" d="M309.27,-469.49C309.27,-469.49 248.57,-456.51 248.57,-456.51 242.7,-455.25 242.7,-452.75 248.57,-451.49 248.57,-451.49 309.27,-438.51 309.27,-438.51 315.13,-437.25 326.87,-437.25 332.73,-438.51 332.73,-438.51 393.43,-451.49 393.43,-451.49 399.3,-452.75 399.3,-455.25 393.43,-456.51 393.43,-456.51 332.73,-469.49 332.73,-469.49 326.87,-470.75 315.13,-470.75 309.27,-469.49"/>
<text text-anchor="middle" x="321" y="-451.5" font-family="Arial" font-size="10.00">Terminal evidence?</text>
</g>
<!-- EC&#45;&gt;V -->
<g id="edge3" class="edge">
<title>EC&#45;&gt;V</title>
<path fill="none" stroke="#64748b" d="M381.63,-508.81C369.6,-498.14 354.14,-484.42 341.85,-473.5"/>
<polygon fill="#64748b" stroke="#64748b" points="343.3,-471.52 336.44,-468.71 340.05,-475.18 343.3,-471.52"/>
</g>
<!-- REF -->
<g id="node5" class="node">
<title>REF</title>
<path fill="#f8fafc" stroke="#475569" d="M543,-390C543,-390 427,-390 427,-390 421,-390 415,-384 415,-378 415,-378 415,-366 415,-366 415,-360 421,-354 427,-354 427,-354 543,-354 543,-354 549,-354 555,-360 555,-366 555,-366 555,-378 555,-378 555,-384 549,-390 543,-390"/>
<text text-anchor="middle" x="485" y="-369.5" font-family="Arial" font-size="10.00">Precise evidence refinement</text>
</g>
<!-- V&#45;&gt;REF -->
<g id="edge4" class="edge">
<title>V&#45;&gt;REF</title>
<path fill="none" stroke="#64748b" d="M351.24,-442.31C368.45,-435.89 390.26,-427.21 409,-418 423.55,-410.85 439.04,-401.94 452.21,-393.93"/>
<polygon fill="#64748b" stroke="#64748b" points="453.8,-395.83 458.48,-390.08 451.23,-391.66 453.8,-395.83"/>
<text text-anchor="middle" x="459" y="-410.8" font-family="Arial" font-size="9.00">needs evidence</text>
</g>
<!-- SP -->
<g id="node6" class="node">
<title>SP</title>
<path fill="#f8fafc" stroke="#475569" d="M178,-336C178,-336 12,-336 12,-336 6,-336 0,-330 0,-324 0,-324 0,-312 0,-312 0,-306 6,-300 12,-300 12,-300 178,-300 178,-300 184,-300 190,-306 190,-312 190,-312 190,-324 190,-324 190,-330 184,-336 178,-336"/>
<text text-anchor="middle" x="95" y="-315.5" font-family="Arial" font-size="10.00">Authority / conflict / extraction workflow</text>
</g>
<!-- V&#45;&gt;SP -->
<g id="edge6" class="edge">
<title>V&#45;&gt;SP</title>
<path fill="none" stroke="#64748b" d="M266.74,-447.48C239.17,-442.78 206.09,-434.08 180,-418 149.15,-398.99 123.67,-365.08 108.89,-342.32"/>
<polygon fill="#64748b" stroke="#64748b" points="110.83,-340.81 105.01,-336.21 106.7,-343.44 110.83,-340.81"/>
<text text-anchor="middle" x="207" y="-410.8" font-family="Arial" font-size="9.00">special issue</text>
</g>
<!-- CE -->
<g id="node7" class="node">
<title>CE</title>
<path fill="#f8fafc" stroke="#475569" d="M264.5,-390C264.5,-390 203.5,-390 203.5,-390 197.5,-390 191.5,-384 191.5,-378 191.5,-378 191.5,-366 191.5,-366 191.5,-360 197.5,-354 203.5,-354 203.5,-354 264.5,-354 264.5,-354 270.5,-354 276.5,-360 276.5,-366 276.5,-366 276.5,-378 276.5,-378 276.5,-384 270.5,-390 264.5,-390"/>
<text text-anchor="middle" x="234" y="-369.5" font-family="Arial" font-size="10.00">Claim Extractor</text>
</g>
<!-- V&#45;&gt;CE -->
<g id="edge8" class="edge">
<title>V&#45;&gt;CE</title>
<path fill="none" stroke="#64748b" d="M286.13,-443.45C272.22,-438.04 257.13,-429.91 247,-418 242.1,-412.24 239.04,-404.73 237.14,-397.49"/>
<polygon fill="#64748b" stroke="#64748b" points="239.48,-396.74 235.59,-390.43 234.7,-397.79 239.48,-396.74"/>
<text text-anchor="middle" x="266" y="-410.8" font-family="Arial" font-size="9.00">accepted</text>
</g>
<!-- GAP -->
<g id="node9" class="node">
<title>GAP</title>
<path fill="#f8fafc" stroke="#475569" d="M395.5,-336C395.5,-336 320.5,-336 320.5,-336 314.5,-336 308.5,-330 308.5,-324 308.5,-324 308.5,-312 308.5,-312 308.5,-306 314.5,-300 320.5,-300 320.5,-300 395.5,-300 395.5,-300 401.5,-300 407.5,-306 407.5,-312 407.5,-312 407.5,-324 407.5,-324 407.5,-330 401.5,-336 395.5,-336"/>
<text text-anchor="middle" x="358" y="-315.5" font-family="Arial" font-size="10.00">Honest source gap</text>
</g>
<!-- V&#45;&gt;GAP -->
<g id="edge7" class="edge">
<title>V&#45;&gt;GAP</title>
<path fill="none" stroke="#64748b" d="M316.03,-436.62C314.12,-428.03 312.85,-417.37 315,-408 320.42,-384.31 333,-359.6 343.16,-342.24"/>
<polygon fill="#64748b" stroke="#64748b" points="345.29,-343.46 346.78,-336.19 341.08,-340.94 345.29,-343.46"/>
<text text-anchor="middle" x="358.5" y="-410.8" font-family="Arial" font-size="9.00">no supported answer</text>
</g>
<!-- REF&#45;&gt;R -->
<g id="edge5" class="edge">
<title>REF&#45;&gt;R</title>
<path fill="none" stroke="#64748b" d="M493.33,-390.05C495.64,-395.64 497.84,-401.96 499,-408 499.84,-412.36 499.27,-413.56 499,-418 495.59,-474.25 486.28,-539.8 480.93,-574.51"/>
<polygon fill="#64748b" stroke="#64748b" points="478.45,-574.55 479.79,-581.84 483.29,-575.3 478.45,-574.55"/>
</g>
<!-- CP -->
<g id="node10" class="node">
<title>CP</title>
<path fill="#ecfdf5" stroke="#475569" d="M300,-200C300,-200 210,-200 210,-200 204,-200 198,-194 198,-188 198,-188 198,-176 198,-176 198,-170 204,-164 210,-164 210,-164 300,-164 300,-164 306,-164 312,-170 312,-176 312,-176 312,-188 312,-188 312,-194 306,-200 300,-200"/>
<text text-anchor="middle" x="255" y="-185" font-family="Arial" font-size="10.00">Curiosity Planner</text>
<text text-anchor="middle" x="255" y="-174" font-family="Arial" font-size="10.00">grounded children only</text>
</g>
<!-- SP&#45;&gt;CP -->
<g id="edge13" class="edge">
<title>SP&#45;&gt;CP</title>
<path fill="none" stroke="#64748b" d="M94.96,-299.91C95.79,-284.23 99.33,-261.18 112,-246 132.03,-221.99 163.02,-206.83 191.03,-197.42"/>
<polygon fill="#64748b" stroke="#64748b" points="191.79,-199.75 197.7,-195.26 190.28,-195.08 191.79,-199.75"/>
<text text-anchor="middle" x="147.5" y="-261.8" font-family="Arial" font-size="9.00">terminal outcome</text>
</g>
<!-- CR -->
<g id="node8" class="node">
<title>CR</title>
<path fill="#f8fafc" stroke="#475569" d="M300,-282C300,-282 210,-282 210,-282 204,-282 198,-276 198,-270 198,-270 198,-258 198,-258 198,-252 204,-246 210,-246 210,-246 300,-246 300,-246 306,-246 312,-252 312,-258 312,-258 312,-270 312,-270 312,-276 306,-282 300,-282"/>
<text text-anchor="middle" x="255" y="-261.5" font-family="Arial" font-size="10.00">Fresh Claim Reviewer</text>
</g>
<!-- CE&#45;&gt;CR -->
<g id="edge9" class="edge">
<title>CE&#45;&gt;CR</title>
<path fill="none" stroke="#64748b" d="M229.21,-353.91C225.93,-339.23 223.14,-317.71 229,-300 230.34,-295.95 232.35,-291.98 234.67,-288.27"/>
<polygon fill="#64748b" stroke="#64748b" points="236.85,-289.42 238.81,-282.27 232.82,-286.64 236.85,-289.42"/>
</g>
<!-- CR&#45;&gt;CE -->
<g id="edge10" class="edge">
<title>CR&#45;&gt;CE</title>
<path fill="none" stroke="#64748b" d="M251.56,-282.34C248.07,-299.97 242.63,-327.42 238.73,-347.1"/>
<polygon fill="#64748b" stroke="#64748b" points="236.33,-346.63 237.37,-353.97 241.14,-347.58 236.33,-346.63"/>
<text text-anchor="middle" x="270" y="-315.8" font-family="Arial" font-size="9.00">split/revise</text>
</g>
<!-- CR&#45;&gt;CP -->
<g id="edge11" class="edge">
<title>CR&#45;&gt;CP</title>
<path fill="none" stroke="#64748b" d="M255,-245.64C255,-234.45 255,-219.74 255,-207.39"/>
<polygon fill="#64748b" stroke="#64748b" points="257.45,-207.05 255,-200.05 252.55,-207.05 257.45,-207.05"/>
<text text-anchor="middle" x="288.5" y="-220.8" font-family="Arial" font-size="9.00">accepted claims</text>
</g>
<!-- GAP&#45;&gt;CP -->
<g id="edge12" class="edge">
<title>GAP&#45;&gt;CP</title>
<path fill="none" stroke="#64748b" d="M357.18,-299.96C355.29,-278.49 349.13,-241.56 329,-218 324.29,-212.49 318.52,-207.78 312.3,-203.78"/>
<polygon fill="#64748b" stroke="#64748b" points="313.22,-201.48 305.95,-200.02 310.72,-205.7 313.22,-201.48"/>
</g>
<!-- NG -->
<g id="node11" class="node">
<title>NG</title>
<path fill="#fff7ed" stroke="#475569" d="M243.18,-115.96C243.18,-115.96 162.7,-102.04 162.7,-102.04 156.79,-101.02 156.79,-98.98 162.7,-97.96 162.7,-97.96 243.18,-84.04 243.18,-84.04 249.09,-83.02 260.91,-83.02 266.82,-84.04 266.82,-84.04 347.3,-97.96 347.3,-97.96 353.21,-98.98 353.21,-101.02 347.3,-102.04 347.3,-102.04 266.82,-115.96 266.82,-115.96 260.91,-116.98 249.09,-116.98 243.18,-115.96"/>
<text text-anchor="middle" x="255" y="-97.5" font-family="Arial" font-size="10.00">Novelty + obligation gate</text>
</g>
<!-- CP&#45;&gt;NG -->
<g id="edge14" class="edge">
<title>CP&#45;&gt;NG</title>
<path fill="none" stroke="#64748b" d="M252.07,-163.96C251.23,-158.27 250.42,-151.88 250,-146 249.51,-139.09 249.95,-131.61 250.74,-124.76"/>
<polygon fill="#64748b" stroke="#64748b" points="253.19,-124.91 251.7,-117.64 248.33,-124.25 253.19,-124.91"/>
</g>
<!-- NG&#45;&gt;CP -->
<g id="edge16" class="edge">
<title>NG&#45;&gt;CP</title>
<path fill="none" stroke="#64748b" d="M255,-118.05C255,-129.28 255,-144.15 255,-156.62"/>
<polygon fill="#64748b" stroke="#64748b" points="252.55,-156.64 255,-163.64 257.45,-156.64 252.55,-156.64"/>
<text text-anchor="middle" x="281.5" y="-138.8" font-family="Arial" font-size="9.00">reject/rewrite</text>
</g>
<!-- CHILD -->
<g id="node12" class="node">
<title>CHILD</title>
<path fill="#eef2ff" stroke="#475569" d="M290.5,-36C290.5,-36 219.5,-36 219.5,-36 213.5,-36 207.5,-30 207.5,-24 207.5,-24 207.5,-12 207.5,-12 207.5,-6 213.5,0 219.5,0 219.5,0 290.5,0 290.5,0 296.5,0 302.5,-6 302.5,-12 302.5,-12 302.5,-24 302.5,-24 302.5,-30 296.5,-36 290.5,-36"/>
<text text-anchor="middle" x="255" y="-15.5" font-family="Arial" font-size="10.00">Parallel child cells</text>
</g>
<!-- NG&#45;&gt;CHILD -->
<g id="edge15" class="edge">
<title>NG&#45;&gt;CHILD</title>
<path fill="none" stroke="#64748b" d="M255,-81.64C255,-70.45 255,-55.74 255,-43.39"/>
<polygon fill="#64748b" stroke="#64748b" points="257.45,-43.05 255,-36.05 252.55,-43.05 257.45,-43.05"/>
<text text-anchor="middle" x="266.5" y="-56.8" font-family="Arial" font-size="9.00">novel</text>
</g>
</g>
</svg>
