<?xml version="1.0" encoding="UTF-8" standalone="no"?>
<!DOCTYPE svg PUBLIC "-//W3C//DTD SVG 1.1//EN"
 "http://www.w3.org/Graphics/SVG/1.1/DTD/svg11.dtd">
<!-- Generated by graphviz version 2.42.4 (0)
 -->
<!-- Title: G Pages: 1 -->
<svg width="1060pt" height="198pt"
 viewBox="0.00 0.00 1060.00 198.44" xmlns="http://www.w3.org/2000/svg" xmlns:xlink="http://www.w3.org/1999/xlink">
<g id="graph0" class="graph" transform="scale(1 1) rotate(0) translate(18 180.44)">
<title>G</title>
<!-- Seeds -->
<g id="node1" class="node">
<title>Seeds</title>
<path fill="#f8fafc" stroke="#475569" d="M42,-86C42,-86 12,-86 12,-86 6,-86 0,-80 0,-74 0,-74 0,-62 0,-62 0,-56 6,-50 12,-50 12,-50 42,-50 42,-50 48,-50 54,-56 54,-62 54,-62 54,-74 54,-74 54,-80 48,-86 42,-86"/>
<text text-anchor="middle" x="27" y="-65.8" font-family="Arial" font-size="9.00">Seeds</text>
</g>
<!-- F -->
<g id="node2" class="node">
<title>F</title>
<path fill="#f8fafc" stroke="#475569" d="M173,-86C173,-86 111,-86 111,-86 105,-86 99,-80 99,-74 99,-74 99,-62 99,-62 99,-56 105,-50 111,-50 111,-50 173,-50 173,-50 179,-50 185,-56 185,-62 185,-62 185,-74 185,-74 185,-80 179,-86 173,-86"/>
<text text-anchor="middle" x="142" y="-70.8" font-family="Arial" font-size="9.00">Forward curiosity</text>
<text text-anchor="middle" x="142" y="-60.8" font-family="Arial" font-size="9.00">finite obligations</text>
</g>
<!-- Seeds&#45;&gt;F -->
<g id="edge1" class="edge">
<title>Seeds&#45;&gt;F</title>
<path fill="none" stroke="#64748b" d="M54.21,-68C65.42,-68 78.9,-68 91.85,-68"/>
<polygon fill="#64748b" stroke="#64748b" points="92.06,-70.28 98.56,-68 92.06,-65.73 92.06,-70.28"/>
</g>
<!-- Cov -->
<g id="node3" class="node">
<title>Cov</title>
<path fill="#f8fafc" stroke="#475569" d="M333,-121C333,-121 242,-121 242,-121 236,-121 230,-115 230,-109 230,-109 230,-97 230,-97 230,-91 236,-85 242,-85 242,-85 333,-85 333,-85 339,-85 345,-91 345,-97 345,-97 345,-109 345,-109 345,-115 339,-121 333,-121"/>
<text text-anchor="middle" x="287.5" y="-100.8" font-family="Arial" font-size="9.00">Source coverage ledger</text>
</g>
<!-- F&#45;&gt;Cov -->
<g id="edge2" class="edge">
<title>F&#45;&gt;Cov</title>
<path fill="none" stroke="#64748b" d="M185.28,-78.31C197.29,-81.24 210.63,-84.49 223.58,-87.65"/>
<polygon fill="#64748b" stroke="#64748b" points="223.04,-89.86 229.89,-89.19 224.12,-85.44 223.04,-89.86"/>
</g>
<!-- Gates -->
<g id="node6" class="node">
<title>Gates</title>
<path fill="#f8fafc" stroke="#475569" d="M839,-132C839,-132 554,-132 554,-132 548,-132 542,-126 542,-120 542,-120 542,-108 542,-108 542,-102 548,-96 554,-96 554,-96 839,-96 839,-96 845,-96 851,-102 851,-108 851,-108 851,-120 851,-120 851,-126 845,-132 839,-132"/>
<text text-anchor="middle" x="696.5" y="-111.8" font-family="Arial" font-size="9.00">Evidence / claims / authority / extraction / dedup / validity / editorial gates</text>
</g>
<!-- F&#45;&gt;Gates -->
<g id="edge8" class="edge">
<title>F&#45;&gt;Gates</title>
<path fill="none" stroke="#64748b" d="M159.26,-86.09C175.36,-102.57 201.67,-125.84 230,-136 363.13,-183.73 531.49,-156.02 624.9,-133.64"/>
<polygon fill="#64748b" stroke="#64748b" points="625.71,-135.78 631.49,-132.04 624.64,-131.36 625.71,-135.78"/>
</g>
<!-- Rev -->
<g id="node4" class="node">
<title>Rev</title>
<path fill="#f8fafc" stroke="#475569" d="M483.5,-101C483.5,-101 403.5,-101 403.5,-101 397.5,-101 391.5,-95 391.5,-89 391.5,-89 391.5,-77 391.5,-77 391.5,-71 397.5,-65 403.5,-65 403.5,-65 483.5,-65 483.5,-65 489.5,-65 495.5,-71 495.5,-77 495.5,-77 495.5,-89 495.5,-89 495.5,-95 489.5,-101 483.5,-101"/>
<text text-anchor="middle" x="443.5" y="-85.8" font-family="Arial" font-size="9.00">Reverse Questioner</text>
<text text-anchor="middle" x="443.5" y="-75.8" font-family="Arial" font-size="9.00">unaccounted clusters</text>
</g>
<!-- Cov&#45;&gt;Rev -->
<g id="edge3" class="edge">
<title>Cov&#45;&gt;Rev</title>
<path fill="none" stroke="#64748b" d="M345.41,-95.61C358.25,-93.94 371.89,-92.17 384.77,-90.5"/>
<polygon fill="#64748b" stroke="#64748b" points="385.27,-92.73 391.42,-89.63 384.68,-88.21 385.27,-92.73"/>
</g>
<!-- H -->
<g id="node5" class="node">
<title>H</title>
<path fill="#f8fafc" stroke="#475569" d="M485,-36C485,-36 402,-36 402,-36 396,-36 390,-30 390,-24 390,-24 390,-12 390,-12 390,-6 396,0 402,0 402,0 485,0 485,0 491,0 497,-6 497,-12 497,-12 497,-24 497,-24 497,-30 491,-36 485,-36"/>
<text text-anchor="middle" x="443.5" y="-20.8" font-family="Arial" font-size="9.00">Human curiosity</text>
<text text-anchor="middle" x="443.5" y="-10.8" font-family="Arial" font-size="9.00">Ask here + checkpoint</text>
</g>
<!-- Cov&#45;&gt;H -->
<g id="edge5" class="edge">
<title>Cov&#45;&gt;H</title>
<path fill="none" stroke="#64748b" d="M321.16,-84.97C345.35,-71.62 378.41,-53.37 403.91,-39.3"/>
<polygon fill="#64748b" stroke="#64748b" points="405.3,-41.13 409.89,-36 403.1,-37.15 405.3,-41.13"/>
</g>
<!-- Cov&#45;&gt;Gates -->
<g id="edge7" class="edge">
<title>Cov&#45;&gt;Gates</title>
<path fill="none" stroke="#64748b" d="M345.05,-111.29C352.43,-112.26 359.89,-113.19 367,-114 421.59,-120.19 481.61,-121.73 535.25,-121.23"/>
<polygon fill="#64748b" stroke="#64748b" points="535.28,-123.5 541.76,-121.16 535.23,-118.95 535.28,-123.5"/>
</g>
<!-- Rev&#45;&gt;F -->
<g id="edge4" class="edge">
<title>Rev&#45;&gt;F</title>
<path fill="none" stroke="#64748b" d="M391.47,-69.88C376.59,-66.63 360.24,-63.62 345,-62 294.18,-56.59 281.08,-60.24 230,-62 217.62,-62.43 204.26,-63.19 191.82,-64.04"/>
<polygon fill="#64748b" stroke="#64748b" points="191.33,-61.79 185.01,-64.52 191.65,-66.33 191.33,-61.79"/>
<text text-anchor="middle" x="287.5" y="-64.6" font-family="Arial" font-size="8.00">grounded questions</text>
</g>
<!-- Rev&#45;&gt;Gates -->
<g id="edge9" class="edge">
<title>Rev&#45;&gt;Gates</title>
<path fill="none" stroke="#64748b" d="M495.6,-89.31C509.77,-91.06 525.92,-93.06 542.76,-95.14"/>
<polygon fill="#64748b" stroke="#64748b" points="542.77,-97.43 549.5,-95.97 543.33,-92.91 542.77,-97.43"/>
</g>
<!-- H&#45;&gt;F -->
<g id="edge6" class="edge">
<title>H&#45;&gt;F</title>
<path fill="none" stroke="#64748b" d="M389.73,-21.81C346.5,-25.5 283.9,-32.16 230,-43 217.4,-45.53 203.98,-49 191.54,-52.54"/>
<polygon fill="#64748b" stroke="#64748b" points="190.75,-50.4 185.14,-54.4 192.02,-54.77 190.75,-50.4"/>
<text text-anchor="middle" x="287.5" y="-45.6" font-family="Arial" font-size="8.00">injections</text>
</g>
<!-- H&#45;&gt;Gates -->
<g id="edge10" class="edge">
<title>H&#45;&gt;Gates</title>
<path fill="none" stroke="#64748b" d="M491.71,-36.06C534.43,-52.4 597.31,-76.45 641.91,-93.5"/>
<polygon fill="#64748b" stroke="#64748b" points="641.19,-95.66 648.07,-95.86 642.82,-91.41 641.19,-95.66"/>
</g>
<!-- Cert -->
<g id="node7" class="node">
<title>Cert</title>
<path fill="#ecfdf5" stroke="#475569" d="M1012,-132C1012,-132 908,-132 908,-132 902,-132 896,-126 896,-120 896,-120 896,-108 896,-108 896,-102 902,-96 908,-96 908,-96 1012,-96 1012,-96 1018,-96 1024,-102 1024,-108 1024,-108 1024,-120 1024,-120 1024,-126 1018,-132 1012,-132"/>
<text text-anchor="middle" x="960" y="-111.8" font-family="Arial" font-size="9.00">Bounded closure certificate</text>
</g>
<!-- Gates&#45;&gt;Cert -->
<g id="edge11" class="edge">
<title>Gates&#45;&gt;Cert</title>
<path fill="none" stroke="#64748b" d="M851.13,-114C864.35,-114 877.26,-114 889.28,-114"/>
<polygon fill="#64748b" stroke="#64748b" points="889.36,-116.28 895.86,-114 889.36,-111.73 889.36,-116.28"/>
</g>
</g>
</svg>
