<?xml version="1.0" encoding="UTF-8" standalone="no"?>
<!DOCTYPE svg PUBLIC "-//W3C//DTD SVG 1.1//EN"
 "http://www.w3.org/Graphics/SVG/1.1/DTD/svg11.dtd">
<!-- Generated by graphviz version 2.42.4 (0)
 -->
<!-- Title: G Pages: 1 -->
<svg width="828pt" height="304pt"
 viewBox="0.00 0.00 828.00 304.00" xmlns="http://www.w3.org/2000/svg" xmlns:xlink="http://www.w3.org/1999/xlink">
<g id="graph0" class="graph" transform="scale(1 1) rotate(0) translate(18 286)">
<title>G</title>
<!-- U -->
<g id="node1" class="node">
<title>U</title>
<path fill="#f8fafc" stroke="#475569" d="M226,-216C226,-216 187,-216 187,-216 181,-216 175,-210 175,-204 175,-204 175,-192 175,-192 175,-186 181,-180 187,-180 187,-180 226,-180 226,-180 232,-180 238,-186 238,-192 238,-192 238,-204 238,-204 238,-210 232,-216 226,-216"/>
<text text-anchor="middle" x="206.5" y="-195.8" font-family="Arial" font-size="9.00">Source unit</text>
</g>
<!-- EP -->
<g id="node2" class="node">
<title>EP</title>
<path fill="#f8fafc" stroke="#475569" d="M417,-268C417,-268 357,-268 357,-268 351,-268 345,-262 345,-256 345,-256 345,-244 345,-244 345,-238 351,-232 357,-232 357,-232 417,-232 417,-232 423,-232 429,-238 429,-244 429,-244 429,-256 429,-256 429,-262 423,-268 417,-268"/>
<text text-anchor="middle" x="387" y="-247.8" font-family="Arial" font-size="9.00">Evidence packet</text>
</g>
<!-- U&#45;&gt;EP -->
<g id="edge1" class="edge">
<title>U&#45;&gt;EP</title>
<path fill="none" stroke="#64748b" d="M238.03,-210.09C244.57,-212.51 251.48,-214.94 258,-217 284.31,-225.32 314.15,-233.1 338.39,-239.02"/>
<polygon fill="#64748b" stroke="#64748b" points="337.9,-241.24 344.75,-240.56 338.97,-236.82 337.9,-241.24"/>
</g>
<!-- C -->
<g id="node3" class="node">
<title>C</title>
<path fill="#f8fafc" stroke="#475569" d="M523,-216C523,-216 493,-216 493,-216 487,-216 481,-210 481,-204 481,-204 481,-192 481,-192 481,-186 487,-180 493,-180 493,-180 523,-180 523,-180 529,-180 535,-186 535,-192 535,-192 535,-204 535,-204 535,-210 529,-216 523,-216"/>
<text text-anchor="middle" x="508" y="-195.8" font-family="Arial" font-size="9.00">Claim</text>
</g>
<!-- U&#45;&gt;C -->
<g id="edge9" class="edge">
<title>U&#45;&gt;C</title>
<path fill="none" stroke="#64748b" stroke-dasharray="5,2" d="M238.14,-198C294.88,-198 415.79,-198 474.15,-198"/>
<polygon fill="#64748b" stroke="#64748b" points="474.44,-200.28 480.94,-198 474.44,-195.73 474.44,-200.28"/>
<text text-anchor="middle" x="387" y="-200.6" font-family="Arial" font-size="8.00">hash dependency</text>
</g>
<!-- EP&#45;&gt;C -->
<g id="edge2" class="edge">
<title>EP&#45;&gt;C</title>
<path fill="none" stroke="#64748b" d="M429.29,-231.96C444.07,-225.5 460.52,-218.31 474.46,-212.22"/>
<polygon fill="#64748b" stroke="#64748b" points="475.63,-214.19 480.68,-209.5 473.81,-210.02 475.63,-214.19"/>
</g>
<!-- A -->
<g id="node4" class="node">
<title>A</title>
<path fill="#f8fafc" stroke="#475569" d="M663.5,-247C663.5,-247 633.5,-247 633.5,-247 627.5,-247 621.5,-241 621.5,-235 621.5,-235 621.5,-223 621.5,-223 621.5,-217 627.5,-211 633.5,-211 633.5,-211 663.5,-211 663.5,-211 669.5,-211 675.5,-217 675.5,-223 675.5,-223 675.5,-235 675.5,-235 675.5,-241 669.5,-247 663.5,-247"/>
<text text-anchor="middle" x="648.5" y="-226.8" font-family="Arial" font-size="9.00">Answer</text>
</g>
<!-- C&#45;&gt;A -->
<g id="edge3" class="edge">
<title>C&#45;&gt;A</title>
<path fill="none" stroke="#64748b" d="M529.54,-216.26C537.03,-221.79 545.9,-227.15 555,-230 574.07,-235.98 596.47,-235.91 614.45,-234.26"/>
<polygon fill="#64748b" stroke="#64748b" points="615.13,-236.47 621.35,-233.53 614.65,-231.95 615.13,-236.47"/>
</g>
<!-- C&#45;&gt;A -->
<g id="edge10" class="edge">
<title>C&#45;&gt;A</title>
<path fill="none" stroke="#64748b" stroke-dasharray="5,2" d="M535.05,-203.83C557.54,-208.86 590.15,-216.16 614.47,-221.61"/>
<polygon fill="#64748b" stroke="#64748b" points="614.26,-223.89 621.1,-223.09 615.25,-219.45 614.26,-223.89"/>
<text text-anchor="middle" x="577" y="-220.6" font-family="Arial" font-size="8.00">dependency</text>
</g>
<!-- D -->
<g id="node5" class="node">
<title>D</title>
<path fill="#f8fafc" stroke="#475569" d="M666,-186C666,-186 631,-186 631,-186 625,-186 619,-180 619,-174 619,-174 619,-162 619,-162 619,-156 625,-150 631,-150 631,-150 666,-150 666,-150 672,-150 678,-156 678,-162 678,-162 678,-174 678,-174 678,-180 672,-186 666,-186"/>
<text text-anchor="middle" x="648.5" y="-165.8" font-family="Arial" font-size="9.00">Document</text>
</g>
<!-- C&#45;&gt;D -->
<g id="edge4" class="edge">
<title>C&#45;&gt;D</title>
<path fill="none" stroke="#64748b" d="M535.05,-192.36C556.82,-187.64 588.09,-180.87 612.12,-175.66"/>
<polygon fill="#64748b" stroke="#64748b" points="612.83,-177.84 618.7,-174.24 611.86,-173.39 612.83,-177.84"/>
</g>
<!-- C&#45;&gt;D -->
<g id="edge11" class="edge">
<title>C&#45;&gt;D</title>
<path fill="none" stroke="#64748b" stroke-dasharray="5,2" d="M527.05,-179.9C534.94,-173.23 544.73,-166.46 555,-163 573.16,-156.88 594.46,-157.54 612.04,-159.99"/>
<polygon fill="#64748b" stroke="#64748b" points="612.06,-162.3 618.83,-161.06 612.76,-157.8 612.06,-162.3"/>
<text text-anchor="middle" x="577" y="-165.6" font-family="Arial" font-size="8.00">dependency</text>
</g>
<!-- FX -->
<g id="node6" class="node">
<title>FX</title>
<path fill="#f8fafc" stroke="#475569" d="M780,-216C780,-216 731,-216 731,-216 725,-216 719,-210 719,-204 719,-204 719,-192 719,-192 719,-186 725,-180 731,-180 731,-180 780,-180 780,-180 786,-180 792,-186 792,-192 792,-192 792,-204 792,-204 792,-210 786,-216 780,-216"/>
<text text-anchor="middle" x="755.5" y="-195.8" font-family="Arial" font-size="9.00">Replay fixture</text>
</g>
<!-- A&#45;&gt;FX -->
<g id="edge5" class="edge">
<title>A&#45;&gt;FX</title>
<path fill="none" stroke="#64748b" d="M675.73,-221.26C686.79,-217.99 699.96,-214.1 712.34,-210.45"/>
<polygon fill="#64748b" stroke="#64748b" points="713.13,-212.59 718.72,-208.56 711.84,-208.22 713.13,-212.59"/>
</g>
<!-- D&#45;&gt;FX -->
<g id="edge6" class="edge">
<title>D&#45;&gt;FX</title>
<path fill="none" stroke="#64748b" d="M678.19,-176.2C688.75,-179.21 700.93,-182.69 712.42,-185.98"/>
<polygon fill="#64748b" stroke="#64748b" points="711.84,-188.18 718.71,-187.78 713.09,-183.8 711.84,-188.18"/>
</g>
<!-- EVT -->
<g id="node7" class="node">
<title>EVT</title>
<path fill="#fef2f2" stroke="#475569" d="M62,-153C62,-153 12,-153 12,-153 6,-153 0,-147 0,-141 0,-141 0,-129 0,-129 0,-123 6,-117 12,-117 12,-117 62,-117 62,-117 68,-117 74,-123 74,-129 74,-129 74,-141 74,-141 74,-147 68,-153 62,-153"/>
<text text-anchor="middle" x="37" y="-132.8" font-family="Arial" font-size="9.00">Change event</text>
</g>
<!-- EVT&#45;&gt;U -->
<g id="edge7" class="edge">
<title>EVT&#45;&gt;U</title>
<path fill="none" stroke="#64748b" d="M74.35,-148.67C102.25,-159.17 140.64,-173.6 168.67,-184.15"/>
<polygon fill="#64748b" stroke="#64748b" points="167.95,-186.31 174.84,-186.47 169.56,-182.05 167.95,-186.31"/>
<text text-anchor="middle" x="124.5" y="-179.6" font-family="Arial" font-size="8.00">source/extraction</text>
</g>
<!-- EVT&#45;&gt;C -->
<g id="edge8" class="edge">
<title>EVT&#45;&gt;C</title>
<path fill="none" stroke="#64748b" d="M74.02,-139.84C162.47,-151.72 389.27,-182.19 474.22,-193.6"/>
<polygon fill="#64748b" stroke="#64748b" points="474.06,-195.87 480.81,-194.48 474.67,-191.36 474.06,-195.87"/>
<text text-anchor="middle" x="286" y="-173.6" font-family="Arial" font-size="8.00">authority/dedup</text>
</g>
<!-- staleC -->
<g id="node8" class="node">
<title>staleC</title>
<path fill="#fef2f2" stroke="#475569" d="M225.5,-97C225.5,-97 187.5,-97 187.5,-97 181.5,-97 175.5,-91 175.5,-85 175.5,-85 175.5,-73 175.5,-73 175.5,-67 181.5,-61 187.5,-61 187.5,-61 225.5,-61 225.5,-61 231.5,-61 237.5,-67 237.5,-73 237.5,-73 237.5,-85 237.5,-85 237.5,-91 231.5,-97 225.5,-97"/>
<text text-anchor="middle" x="206.5" y="-76.8" font-family="Arial" font-size="9.00">Claim stale</text>
</g>
<!-- EVT&#45;&gt;staleC -->
<g id="edge12" class="edge">
<title>EVT&#45;&gt;staleC</title>
<path fill="none" stroke="#64748b" d="M74.14,-122.7C80.74,-120.46 87.58,-118.16 94,-116 118.99,-107.61 147.17,-98.27 168.94,-91.06"/>
<polygon fill="#64748b" stroke="#64748b" points="169.74,-93.2 175.19,-89 168.31,-88.88 169.74,-93.2"/>
</g>
<!-- staleA -->
<g id="node9" class="node">
<title>staleA</title>
<path fill="#fef2f2" stroke="#475569" d="M422.5,-97C422.5,-97 351.5,-97 351.5,-97 345.5,-97 339.5,-91 339.5,-85 339.5,-85 339.5,-73 339.5,-73 339.5,-67 345.5,-61 351.5,-61 351.5,-61 422.5,-61 422.5,-61 428.5,-61 434.5,-67 434.5,-73 434.5,-73 434.5,-85 434.5,-85 434.5,-91 428.5,-97 422.5,-97"/>
<text text-anchor="middle" x="387" y="-76.8" font-family="Arial" font-size="9.00">Answer invalidated</text>
</g>
<!-- staleC&#45;&gt;staleA -->
<g id="edge13" class="edge">
<title>staleC&#45;&gt;staleA</title>
<path fill="none" stroke="#64748b" d="M237.78,-79C263.78,-79 301.87,-79 332.92,-79"/>
<polygon fill="#64748b" stroke="#64748b" points="332.94,-81.28 339.44,-79 332.94,-76.73 332.94,-81.28"/>
</g>
<!-- staleD -->
<g id="node10" class="node">
<title>staleD</title>
<path fill="#fef2f2" stroke="#475569" d="M428,-36C428,-36 346,-36 346,-36 340,-36 334,-30 334,-24 334,-24 334,-12 334,-12 334,-6 340,0 346,0 346,0 428,0 428,0 434,0 440,-6 440,-12 440,-12 440,-24 440,-24 440,-30 434,-36 428,-36"/>
<text text-anchor="middle" x="387" y="-15.8" font-family="Arial" font-size="9.00">Document invalidated</text>
</g>
<!-- staleC&#45;&gt;staleD -->
<g id="edge14" class="edge">
<title>staleC&#45;&gt;staleD</title>
<path fill="none" stroke="#64748b" d="M237.78,-68.65C262.3,-60.27 297.56,-48.22 327.53,-37.98"/>
<polygon fill="#64748b" stroke="#64748b" points="328.43,-40.08 333.85,-35.82 326.96,-35.77 328.43,-40.08"/>
</g>
</g>
</svg>
