<?xml version="1.0" encoding="UTF-8" standalone="no"?>
<!DOCTYPE svg PUBLIC "-//W3C//DTD SVG 1.1//EN"
 "http://www.w3.org/Graphics/SVG/1.1/DTD/svg11.dtd">
<!-- Generated by graphviz version 2.42.4 (0)
 -->
<!-- Title: G Pages: 1 -->
<svg width="264pt" height="741pt"
 viewBox="0.00 0.00 263.50 741.00" xmlns="http://www.w3.org/2000/svg" xmlns:xlink="http://www.w3.org/1999/xlink">
<g id="graph0" class="graph" transform="scale(1 1) rotate(0) translate(18 723)">
<title>G</title>
<!-- Stable -->
<g id="node1" class="node">
<title>Stable</title>
<path fill="#eef2ff" stroke="#475569" d="M155.5,-705C155.5,-705 61.5,-705 61.5,-705 55.5,-705 49.5,-699 49.5,-693 49.5,-693 49.5,-681 49.5,-681 49.5,-675 55.5,-669 61.5,-669 61.5,-669 155.5,-669 155.5,-669 161.5,-669 167.5,-675 167.5,-681 167.5,-681 167.5,-693 167.5,-693 167.5,-699 161.5,-705 155.5,-705"/>
<text text-anchor="middle" x="108.5" y="-684.8" font-family="Arial" font-size="9.00">Stabilized graph revision</text>
</g>
<!-- IA -->
<g id="node2" class="node">
<title>IA</title>
<path fill="#f8fafc" stroke="#475569" d="M164,-636C164,-636 53,-636 53,-636 47,-636 41,-630 41,-624 41,-624 41,-612 41,-612 41,-606 47,-600 53,-600 53,-600 164,-600 164,-600 170,-600 176,-606 176,-612 176,-612 176,-624 176,-624 176,-630 170,-636 164,-636"/>
<text text-anchor="middle" x="108.5" y="-620.8" font-family="Arial" font-size="9.00">Information Architect</text>
<text text-anchor="middle" x="108.5" y="-610.8" font-family="Arial" font-size="9.00">canonical homes + doc types</text>
</g>
<!-- Stable&#45;&gt;IA -->
<g id="edge1" class="edge">
<title>Stable&#45;&gt;IA</title>
<path fill="none" stroke="#64748b" d="M108.5,-668.75C108.5,-660.91 108.5,-651.52 108.5,-643.01"/>
<polygon fill="#64748b" stroke="#64748b" points="110.78,-642.93 108.5,-636.43 106.23,-642.93 110.78,-642.93"/>
</g>
<!-- Approve -->
<g id="node3" class="node">
<title>Approve</title>
<path fill="#fff7ed" stroke="#475569" d="M96.73,-556.64C96.73,-556.64 30.64,-543.36 30.64,-543.36 24.75,-542.18 24.75,-539.82 30.64,-538.64 30.64,-538.64 96.73,-525.36 96.73,-525.36 102.62,-524.18 114.38,-524.18 120.27,-525.36 120.27,-525.36 186.36,-538.64 186.36,-538.64 192.25,-539.82 192.25,-542.18 186.36,-543.36 186.36,-543.36 120.27,-556.64 120.27,-556.64 114.38,-557.82 102.62,-557.82 96.73,-556.64"/>
<text text-anchor="middle" x="108.5" y="-538.8" font-family="Arial" font-size="9.00">Review document plan</text>
</g>
<!-- IA&#45;&gt;Approve -->
<g id="edge2" class="edge">
<title>IA&#45;&gt;Approve</title>
<path fill="none" stroke="#64748b" d="M104.95,-599.87C103.76,-592.27 102.88,-583.2 103.5,-575 103.74,-571.84 104.1,-568.53 104.53,-565.27"/>
<polygon fill="#64748b" stroke="#64748b" points="106.79,-565.49 105.47,-558.73 102.29,-564.84 106.79,-565.49"/>
</g>
<!-- Approve&#45;&gt;IA -->
<g id="edge4" class="edge">
<title>Approve&#45;&gt;IA</title>
<path fill="none" stroke="#64748b" d="M108.5,-559.21C108.5,-569.34 108.5,-582.29 108.5,-593.37"/>
<polygon fill="#64748b" stroke="#64748b" points="106.23,-593.48 108.5,-599.98 110.78,-593.48 106.23,-593.48"/>
<text text-anchor="middle" x="124" y="-577.6" font-family="Arial" font-size="8.00">changes</text>
</g>
<!-- W -->
<g id="node4" class="node">
<title>W</title>
<path fill="#f8fafc" stroke="#475569" d="M153.5,-482C153.5,-482 63.5,-482 63.5,-482 57.5,-482 51.5,-476 51.5,-470 51.5,-470 51.5,-458 51.5,-458 51.5,-452 57.5,-446 63.5,-446 63.5,-446 153.5,-446 153.5,-446 159.5,-446 165.5,-452 165.5,-458 165.5,-458 165.5,-470 165.5,-470 165.5,-476 159.5,-482 153.5,-482"/>
<text text-anchor="middle" x="108.5" y="-466.8" font-family="Arial" font-size="9.00">Document Writer</text>
<text text-anchor="middle" x="108.5" y="-456.8" font-family="Arial" font-size="9.00">sealed claim packs only</text>
</g>
<!-- Approve&#45;&gt;W -->
<g id="edge3" class="edge">
<title>Approve&#45;&gt;W</title>
<path fill="none" stroke="#64748b" d="M108.5,-522.98C108.5,-512.89 108.5,-499.94 108.5,-488.84"/>
<polygon fill="#64748b" stroke="#64748b" points="110.78,-488.71 108.5,-482.21 106.23,-488.71 110.78,-488.71"/>
<text text-anchor="middle" x="125.5" y="-500.6" font-family="Arial" font-size="8.00">approved</text>
</g>
<!-- Cite -->
<g id="node5" class="node">
<title>Cite</title>
<path fill="#f8fafc" stroke="#475569" d="M113,-405C113,-405 12,-405 12,-405 6,-405 0,-399 0,-393 0,-393 0,-381 0,-381 0,-375 6,-369 12,-369 12,-369 113,-369 113,-369 119,-369 125,-375 125,-381 125,-381 125,-393 125,-393 125,-399 119,-405 113,-405"/>
<text text-anchor="middle" x="62.5" y="-384.8" font-family="Arial" font-size="9.00">Fresh citation/claim review</text>
</g>
<!-- W&#45;&gt;Cite -->
<g id="edge5" class="edge">
<title>W&#45;&gt;Cite</title>
<path fill="none" stroke="#64748b" d="M92.36,-445.94C88.18,-441.02 83.9,-435.49 80.5,-430 76.93,-424.23 73.74,-417.63 71.07,-411.4"/>
<polygon fill="#64748b" stroke="#64748b" points="73.15,-410.48 68.58,-405.33 68.94,-412.21 73.15,-410.48"/>
</g>
<!-- Cite&#45;&gt;W -->
<g id="edge6" class="edge">
<title>Cite&#45;&gt;W</title>
<path fill="none" stroke="#64748b" d="M73.06,-405.21C79.44,-415.63 87.67,-429.03 94.58,-440.31"/>
<polygon fill="#64748b" stroke="#64748b" points="92.72,-441.63 98.06,-445.98 96.6,-439.25 92.72,-441.63"/>
<text text-anchor="middle" x="99.5" y="-423.6" font-family="Arial" font-size="8.00">revise</text>
</g>
<!-- Nav -->
<g id="node6" class="node">
<title>Nav</title>
<path fill="#f8fafc" stroke="#475569" d="M163.5,-328C163.5,-328 79.5,-328 79.5,-328 73.5,-328 67.5,-322 67.5,-316 67.5,-316 67.5,-304 67.5,-304 67.5,-298 73.5,-292 79.5,-292 79.5,-292 163.5,-292 163.5,-292 169.5,-292 175.5,-298 175.5,-304 175.5,-304 175.5,-316 175.5,-316 175.5,-322 169.5,-328 163.5,-328"/>
<text text-anchor="middle" x="121.5" y="-307.8" font-family="Arial" font-size="9.00">Fresh navigation tasks</text>
</g>
<!-- Cite&#45;&gt;Nav -->
<g id="edge7" class="edge">
<title>Cite&#45;&gt;Nav</title>
<path fill="none" stroke="#64748b" d="M75.89,-368.98C84.13,-358.51 94.79,-344.96 103.73,-333.59"/>
<polygon fill="#64748b" stroke="#64748b" points="105.73,-334.73 107.96,-328.21 102.15,-331.91 105.73,-334.73"/>
<text text-anchor="middle" x="105" y="-346.6" font-family="Arial" font-size="8.00">pass</text>
</g>
<!-- Nav&#45;&gt;W -->
<g id="edge8" class="edge">
<title>Nav&#45;&gt;W</title>
<path fill="none" stroke="#64748b" d="M128.87,-328.11C136.04,-347.05 144.97,-378.41 138.5,-405 135.52,-417.25 129.47,-429.8 123.58,-440.07"/>
<polygon fill="#64748b" stroke="#64748b" points="121.52,-439.09 120.15,-445.84 125.43,-441.42 121.52,-439.09"/>
<text text-anchor="middle" x="146.5" y="-385.1" font-family="Arial" font-size="8.00">fail</text>
</g>
<!-- Gate -->
<g id="node7" class="node">
<title>Gate</title>
<path fill="#fff7ed" stroke="#475569" d="M109.67,-248.98C109.67,-248.98 28.17,-235.02 28.17,-235.02 22.26,-234.01 22.26,-231.99 28.17,-230.98 28.17,-230.98 109.67,-217.02 109.67,-217.02 115.59,-216.01 127.41,-216.01 133.33,-217.02 133.33,-217.02 214.83,-230.98 214.83,-230.98 220.74,-231.99 220.74,-234.01 214.83,-235.02 214.83,-235.02 133.33,-248.98 133.33,-248.98 127.41,-249.99 115.59,-249.99 109.67,-248.98"/>
<text text-anchor="middle" x="121.5" y="-230.8" font-family="Arial" font-size="9.00">Publication mode / risk gate</text>
</g>
<!-- Nav&#45;&gt;Gate -->
<g id="edge9" class="edge">
<title>Nav&#45;&gt;Gate</title>
<path fill="none" stroke="#64748b" d="M121.5,-291.98C121.5,-281.89 121.5,-268.94 121.5,-257.84"/>
<polygon fill="#64748b" stroke="#64748b" points="123.78,-257.71 121.5,-251.21 119.23,-257.71 123.78,-257.71"/>
<text text-anchor="middle" x="130" y="-269.6" font-family="Arial" font-size="8.00">pass</text>
</g>
<!-- PR -->
<g id="node8" class="node">
<title>PR</title>
<path fill="#f8fafc" stroke="#475569" d="M150,-174C150,-174 93,-174 93,-174 87,-174 81,-168 81,-162 81,-162 81,-150 81,-150 81,-144 87,-138 93,-138 93,-138 150,-138 150,-138 156,-138 162,-144 162,-150 162,-150 162,-162 162,-162 162,-168 156,-174 150,-174"/>
<text text-anchor="middle" x="121.5" y="-153.8" font-family="Arial" font-size="9.00">Git branch + PR</text>
</g>
<!-- Gate&#45;&gt;PR -->
<g id="edge10" class="edge">
<title>Gate&#45;&gt;PR</title>
<path fill="none" stroke="#64748b" d="M121.5,-214.98C121.5,-204.89 121.5,-191.94 121.5,-180.84"/>
<polygon fill="#64748b" stroke="#64748b" points="123.78,-180.71 121.5,-174.21 119.23,-180.71 123.78,-180.71"/>
<text text-anchor="middle" x="174.5" y="-192.6" font-family="Arial" font-size="8.00">canonical / provisional / partial</text>
</g>
<!-- Diff -->
<g id="node9" class="node">
<title>Diff</title>
<path fill="#f8fafc" stroke="#475569" d="M200,-105C200,-105 43,-105 43,-105 37,-105 31,-99 31,-93 31,-93 31,-81 31,-81 31,-75 37,-69 43,-69 43,-69 200,-69 200,-69 206,-69 212,-75 212,-81 212,-81 212,-93 212,-93 212,-99 206,-105 200,-105"/>
<text text-anchor="middle" x="121.5" y="-84.8" font-family="Arial" font-size="9.00">Diff&#45;only summary + independent review</text>
</g>
<!-- PR&#45;&gt;Diff -->
<g id="edge11" class="edge">
<title>PR&#45;&gt;Diff</title>
<path fill="none" stroke="#64748b" d="M121.5,-137.75C121.5,-129.91 121.5,-120.52 121.5,-112.01"/>
<polygon fill="#64748b" stroke="#64748b" points="123.78,-111.93 121.5,-105.43 119.23,-111.93 123.78,-111.93"/>
</g>
<!-- Merge -->
<g id="node10" class="node">
<title>Merge</title>
<path fill="#ecfdf5" stroke="#475569" d="M146.5,-36C146.5,-36 96.5,-36 96.5,-36 90.5,-36 84.5,-30 84.5,-24 84.5,-24 84.5,-12 84.5,-12 84.5,-6 90.5,0 96.5,0 96.5,0 146.5,0 146.5,0 152.5,0 158.5,-6 158.5,-12 158.5,-12 158.5,-24 158.5,-24 158.5,-30 152.5,-36 146.5,-36"/>
<text text-anchor="middle" x="121.5" y="-15.8" font-family="Arial" font-size="9.00">Docent import</text>
</g>
<!-- Diff&#45;&gt;Merge -->
<g id="edge12" class="edge">
<title>Diff&#45;&gt;Merge</title>
<path fill="none" stroke="#64748b" d="M121.5,-68.75C121.5,-60.91 121.5,-51.52 121.5,-43.01"/>
<polygon fill="#64748b" stroke="#64748b" points="123.78,-42.93 121.5,-36.43 119.23,-42.93 123.78,-42.93"/>
</g>
</g>
</svg>
