<?xml version="1.0" encoding="UTF-8" standalone="no"?>
<!DOCTYPE svg PUBLIC "-//W3C//DTD SVG 1.1//EN"
 "http://www.w3.org/Graphics/SVG/1.1/DTD/svg11.dtd">
<!-- Generated by graphviz version 2.42.4 (0)
 -->
<!-- Title: G Pages: 1 -->
<svg width="238pt" height="616pt"
 viewBox="0.00 0.00 238.00 616.00" xmlns="http://www.w3.org/2000/svg" xmlns:xlink="http://www.w3.org/1999/xlink">
<g id="graph0" class="graph" transform="scale(1 1) rotate(0) translate(18 598)">
<title>G</title>
<!-- New -->
<g id="node1" class="node">
<title>New</title>
<path fill="#f8fafc" stroke="#475569" d="M141.5,-580C141.5,-580 60.5,-580 60.5,-580 54.5,-580 48.5,-574 48.5,-568 48.5,-568 48.5,-556 48.5,-556 48.5,-550 54.5,-544 60.5,-544 60.5,-544 141.5,-544 141.5,-544 147.5,-544 153.5,-550 153.5,-556 153.5,-556 153.5,-568 153.5,-568 153.5,-574 147.5,-580 141.5,-580"/>
<text text-anchor="middle" x="101" y="-559.8" font-family="Arial" font-size="9.00">New source snapshot</text>
</g>
<!-- Diff -->
<g id="node2" class="node">
<title>Diff</title>
<path fill="#f8fafc" stroke="#475569" d="M151,-512C151,-512 51,-512 51,-512 45,-512 39,-506 39,-500 39,-500 39,-488 39,-488 39,-482 45,-476 51,-476 51,-476 151,-476 151,-476 157,-476 163,-482 163,-488 163,-488 163,-500 163,-500 163,-506 157,-512 151,-512"/>
<text text-anchor="middle" x="101" y="-491.8" font-family="Arial" font-size="9.00">File + source&#45;unit hash diff</text>
</g>
<!-- New&#45;&gt;Diff -->
<g id="edge1" class="edge">
<title>New&#45;&gt;Diff</title>
<path fill="none" stroke="#64748b" d="M101,-543.66C101,-536.14 101,-527.21 101,-519.06"/>
<polygon fill="#64748b" stroke="#64748b" points="103.28,-518.95 101,-512.45 98.73,-518.95 103.28,-518.95"/>
</g>
<!-- Map -->
<g id="node3" class="node">
<title>Map</title>
<path fill="#f8fafc" stroke="#475569" d="M190,-444C190,-444 12,-444 12,-444 6,-444 0,-438 0,-432 0,-432 0,-420 0,-420 0,-414 6,-408 12,-408 12,-408 190,-408 190,-408 196,-408 202,-414 202,-420 202,-420 202,-432 202,-432 202,-438 196,-444 190,-444"/>
<text text-anchor="middle" x="101" y="-428.8" font-family="Arial" font-size="9.00">Continuity map</text>
<text text-anchor="middle" x="101" y="-418.8" font-family="Arial" font-size="9.00">unchanged / moved / changed / deleted / new</text>
</g>
<!-- Diff&#45;&gt;Map -->
<g id="edge2" class="edge">
<title>Diff&#45;&gt;Map</title>
<path fill="none" stroke="#64748b" d="M101,-475.66C101,-468.14 101,-459.21 101,-451.06"/>
<polygon fill="#64748b" stroke="#64748b" points="103.28,-450.95 101,-444.45 98.73,-450.95 103.28,-450.95"/>
</g>
<!-- Inv -->
<g id="node4" class="node">
<title>Inv</title>
<path fill="#f8fafc" stroke="#475569" d="M172.5,-376C172.5,-376 29.5,-376 29.5,-376 23.5,-376 17.5,-370 17.5,-364 17.5,-364 17.5,-352 17.5,-352 17.5,-346 23.5,-340 29.5,-340 29.5,-340 172.5,-340 172.5,-340 178.5,-340 184.5,-346 184.5,-352 184.5,-352 184.5,-364 184.5,-364 184.5,-370 178.5,-376 172.5,-376"/>
<text text-anchor="middle" x="101" y="-355.8" font-family="Arial" font-size="9.00">Invalidate affected evidence + claims</text>
</g>
<!-- Map&#45;&gt;Inv -->
<g id="edge3" class="edge">
<title>Map&#45;&gt;Inv</title>
<path fill="none" stroke="#64748b" d="M101,-407.66C101,-400.14 101,-391.21 101,-383.06"/>
<polygon fill="#64748b" stroke="#64748b" points="103.28,-382.95 101,-376.45 98.73,-382.95 103.28,-382.95"/>
</g>
<!-- Obl -->
<g id="node5" class="node">
<title>Obl</title>
<path fill="#f8fafc" stroke="#475569" d="M163.5,-308C163.5,-308 38.5,-308 38.5,-308 32.5,-308 26.5,-302 26.5,-296 26.5,-296 26.5,-284 26.5,-284 26.5,-278 32.5,-272 38.5,-272 38.5,-272 163.5,-272 163.5,-272 169.5,-272 175.5,-278 175.5,-284 175.5,-284 175.5,-296 175.5,-296 175.5,-302 169.5,-308 163.5,-308"/>
<text text-anchor="middle" x="101" y="-287.8" font-family="Arial" font-size="9.00">Create changed/new obligations</text>
</g>
<!-- Inv&#45;&gt;Obl -->
<g id="edge4" class="edge">
<title>Inv&#45;&gt;Obl</title>
<path fill="none" stroke="#64748b" d="M101,-339.66C101,-332.14 101,-323.21 101,-315.06"/>
<polygon fill="#64748b" stroke="#64748b" points="103.28,-314.95 101,-308.45 98.73,-314.95 103.28,-314.95"/>
</g>
<!-- Exp -->
<g id="node6" class="node">
<title>Exp</title>
<path fill="#f8fafc" stroke="#475569" d="M169.5,-240C169.5,-240 32.5,-240 32.5,-240 26.5,-240 20.5,-234 20.5,-228 20.5,-228 20.5,-216 20.5,-216 20.5,-210 26.5,-204 32.5,-204 32.5,-204 169.5,-204 169.5,-204 175.5,-204 181.5,-210 181.5,-216 181.5,-216 181.5,-228 181.5,-228 181.5,-234 175.5,-240 169.5,-240"/>
<text text-anchor="middle" x="101" y="-219.8" font-family="Arial" font-size="9.00">Targeted exploration + claim review</text>
</g>
<!-- Obl&#45;&gt;Exp -->
<g id="edge5" class="edge">
<title>Obl&#45;&gt;Exp</title>
<path fill="none" stroke="#64748b" d="M101,-271.66C101,-264.14 101,-255.21 101,-247.06"/>
<polygon fill="#64748b" stroke="#64748b" points="103.28,-246.95 101,-240.45 98.73,-246.95 103.28,-246.95"/>
</g>
<!-- Rev -->
<g id="node7" class="node">
<title>Rev</title>
<path fill="#f8fafc" stroke="#475569" d="M165,-172C165,-172 37,-172 37,-172 31,-172 25,-166 25,-160 25,-160 25,-148 25,-148 25,-142 31,-136 37,-136 37,-136 165,-136 165,-136 171,-136 177,-142 177,-148 177,-148 177,-160 177,-160 177,-166 171,-172 165,-172"/>
<text text-anchor="middle" x="101" y="-151.8" font-family="Arial" font-size="9.00">Reverse accounting for new units</text>
</g>
<!-- Exp&#45;&gt;Rev -->
<g id="edge6" class="edge">
<title>Exp&#45;&gt;Rev</title>
<path fill="none" stroke="#64748b" d="M101,-203.66C101,-196.14 101,-187.21 101,-179.06"/>
<polygon fill="#64748b" stroke="#64748b" points="103.28,-178.95 101,-172.45 98.73,-178.95 103.28,-178.95"/>
</g>
<!-- Ans -->
<g id="node8" class="node">
<title>Ans</title>
<path fill="#f8fafc" stroke="#475569" d="M184,-104C184,-104 18,-104 18,-104 12,-104 6,-98 6,-92 6,-92 6,-80 6,-80 6,-74 12,-68 18,-68 18,-68 184,-68 184,-68 190,-68 196,-74 196,-80 196,-80 196,-92 196,-92 196,-98 190,-104 184,-104"/>
<text text-anchor="middle" x="101" y="-83.8" font-family="Arial" font-size="9.00">Regenerate affected answers/docs/fixtures</text>
</g>
<!-- Rev&#45;&gt;Ans -->
<g id="edge7" class="edge">
<title>Rev&#45;&gt;Ans</title>
<path fill="none" stroke="#64748b" d="M101,-135.66C101,-128.14 101,-119.21 101,-111.06"/>
<polygon fill="#64748b" stroke="#64748b" points="103.28,-110.95 101,-104.45 98.73,-110.95 103.28,-110.95"/>
</g>
<!-- PR -->
<g id="node9" class="node">
<title>PR</title>
<path fill="#ecfdf5" stroke="#475569" d="M138,-36C138,-36 64,-36 64,-36 58,-36 52,-30 52,-24 52,-24 52,-12 52,-12 52,-6 58,0 64,0 64,0 138,0 138,0 144,0 150,-6 150,-12 150,-12 150,-24 150,-24 150,-30 144,-36 138,-36"/>
<text text-anchor="middle" x="101" y="-15.8" font-family="Arial" font-size="9.00">Focused update PR</text>
</g>
<!-- Ans&#45;&gt;PR -->
<g id="edge8" class="edge">
<title>Ans&#45;&gt;PR</title>
<path fill="none" stroke="#64748b" d="M101,-67.66C101,-60.14 101,-51.21 101,-43.06"/>
<polygon fill="#64748b" stroke="#64748b" points="103.28,-42.95 101,-36.45 98.73,-42.95 103.28,-42.95"/>
</g>
</g>
</svg>
