<?xml version="1.0" encoding="UTF-8" standalone="no"?>
<!DOCTYPE svg PUBLIC "-//W3C//DTD SVG 1.1//EN"
 "http://www.w3.org/Graphics/SVG/1.1/DTD/svg11.dtd">
<!-- Generated by graphviz version 2.42.4 (0)
 -->
<!-- Title: G Pages: 1 -->
<svg width="731pt" height="452pt"
 viewBox="0.00 0.00 731.00 452.00" xmlns="http://www.w3.org/2000/svg" xmlns:xlink="http://www.w3.org/1999/xlink">
<g id="graph0" class="graph" transform="scale(1 1) rotate(0) translate(18 434)">
<title>G</title>
<g id="clust1" class="cluster">
<title>cluster_runtime</title>
<path fill="transparent" stroke="#94a3b8" stroke-dasharray="5,2" d="M12,-73C12,-73 179,-73 179,-73 185,-73 191,-79 191,-85 191,-85 191,-396 191,-396 191,-402 185,-408 179,-408 179,-408 12,-408 12,-408 6,-408 0,-402 0,-396 0,-396 0,-85 0,-85 0,-79 6,-73 12,-73"/>
<text text-anchor="middle" x="95.5" y="-392.8" font-family="Arial" font-size="14.00">Transactional / event runtime</text>
</g>
<g id="clust2" class="cluster">
<title>cluster_git</title>
<path fill="transparent" stroke="#334155" d="M513,-8C513,-8 676,-8 676,-8 682,-8 688,-14 688,-20 688,-20 688,-266 688,-266 688,-272 682,-278 676,-278 676,-278 513,-278 513,-278 507,-278 501,-272 501,-266 501,-266 501,-20 501,-20 501,-14 507,-8 513,-8"/>
<text text-anchor="middle" x="594.5" y="-262.8" font-family="Arial" font-size="14.00">Git authoritative logical state</text>
</g>
<!-- Lease -->
<g id="node1" class="node">
<title>Lease</title>
<path fill="#f8fafc" stroke="#475569" d="M120.5,-247C120.5,-247 69.5,-247 69.5,-247 63.5,-247 57.5,-241 57.5,-235 57.5,-235 57.5,-223 57.5,-223 57.5,-217 63.5,-211 69.5,-211 69.5,-211 120.5,-211 120.5,-211 126.5,-211 132.5,-217 132.5,-223 132.5,-223 132.5,-235 132.5,-235 132.5,-241 126.5,-247 120.5,-247"/>
<text text-anchor="middle" x="95" y="-226.8" font-family="Arial" font-size="9.00">Worker leases</text>
</g>
<!-- Check -->
<g id="node10" class="node">
<title>Check</title>
<path fill="#f8fafc" stroke="#475569" d="M432,-247C432,-247 317,-247 317,-247 311,-247 305,-241 305,-235 305,-235 305,-223 305,-223 305,-217 311,-211 317,-211 317,-211 432,-211 432,-211 438,-211 444,-217 444,-223 444,-223 444,-235 444,-235 444,-241 438,-247 432,-247"/>
<text text-anchor="middle" x="374.5" y="-226.8" font-family="Arial" font-size="9.00">Durable workflow checkpoints</text>
</g>
<!-- Lease&#45;&gt;Check -->
<g id="edge1" class="edge">
<title>Lease&#45;&gt;Check</title>
<path fill="none" stroke="#64748b" d="M132.56,-229C174.48,-229 244.32,-229 298.05,-229"/>
<polygon fill="#64748b" stroke="#64748b" points="298.35,-231.28 304.85,-229 298.35,-226.73 298.35,-231.28"/>
</g>
<!-- Event -->
<g id="node2" class="node">
<title>Event</title>
<path fill="#f8fafc" stroke="#475569" d="M127.5,-182C127.5,-182 62.5,-182 62.5,-182 56.5,-182 50.5,-176 50.5,-170 50.5,-170 50.5,-158 50.5,-158 50.5,-152 56.5,-146 62.5,-146 62.5,-146 127.5,-146 127.5,-146 133.5,-146 139.5,-152 139.5,-158 139.5,-158 139.5,-170 139.5,-170 139.5,-176 133.5,-182 127.5,-182"/>
<text text-anchor="middle" x="95" y="-161.8" font-family="Arial" font-size="9.00">Live event stream</text>
</g>
<!-- Event&#45;&gt;Check -->
<g id="edge2" class="edge">
<title>Event&#45;&gt;Check</title>
<path fill="none" stroke="#64748b" d="M139.66,-174.23C182.19,-184.19 247.66,-199.52 298.53,-211.44"/>
<polygon fill="#64748b" stroke="#64748b" points="298.12,-213.68 304.97,-212.95 299.16,-209.25 298.12,-213.68"/>
</g>
<!-- Queue -->
<g id="node3" class="node">
<title>Queue</title>
<path fill="#f8fafc" stroke="#475569" d="M125,-377C125,-377 65,-377 65,-377 59,-377 53,-371 53,-365 53,-365 53,-353 53,-353 53,-347 59,-341 65,-341 65,-341 125,-341 125,-341 131,-341 137,-347 137,-353 137,-353 137,-365 137,-365 137,-371 131,-377 125,-377"/>
<text text-anchor="middle" x="95" y="-356.8" font-family="Arial" font-size="9.00">Queues + retries</text>
</g>
<!-- Queue&#45;&gt;Check -->
<g id="edge3" class="edge">
<title>Queue&#45;&gt;Check</title>
<path fill="none" stroke="#64748b" d="M137.25,-346.77C154.15,-341.34 173.75,-334.47 191,-327 243.78,-304.13 301.85,-271.58 337.99,-250.38"/>
<polygon fill="#64748b" stroke="#64748b" points="339.15,-252.34 343.6,-247.08 336.85,-248.41 339.15,-252.34"/>
</g>
<!-- Session -->
<g id="node4" class="node">
<title>Session</title>
<path fill="#f8fafc" stroke="#475569" d="M141,-312C141,-312 49,-312 49,-312 43,-312 37,-306 37,-300 37,-300 37,-288 37,-288 37,-282 43,-276 49,-276 49,-276 141,-276 141,-276 147,-276 153,-282 153,-288 153,-288 153,-300 153,-300 153,-306 147,-312 141,-312"/>
<text text-anchor="middle" x="95" y="-291.8" font-family="Arial" font-size="9.00">Provider sessions/cache</text>
</g>
<!-- Session&#45;&gt;Check -->
<g id="edge4" class="edge">
<title>Session&#45;&gt;Check</title>
<path fill="none" stroke="#64748b" stroke-dasharray="5,2" d="M153.16,-280.61C195.21,-270.76 252.77,-257.28 298.51,-246.56"/>
<polygon fill="#64748b" stroke="#64748b" points="299.07,-248.77 304.88,-245.07 298.04,-244.34 299.07,-248.77"/>
<text text-anchor="middle" x="237" y="-269.6" font-family="Arial" font-size="8.00">not authoritative</text>
</g>
<!-- Tele -->
<g id="node5" class="node">
<title>Tele</title>
<path fill="#f8fafc" stroke="#475569" d="M124.5,-117C124.5,-117 65.5,-117 65.5,-117 59.5,-117 53.5,-111 53.5,-105 53.5,-105 53.5,-93 53.5,-93 53.5,-87 59.5,-81 65.5,-81 65.5,-81 124.5,-81 124.5,-81 130.5,-81 136.5,-87 136.5,-93 136.5,-93 136.5,-105 136.5,-105 136.5,-111 130.5,-117 124.5,-117"/>
<text text-anchor="middle" x="95" y="-96.8" font-family="Arial" font-size="9.00">Cost + telemetry</text>
</g>
<!-- Export -->
<g id="node11" class="node">
<title>Export</title>
<path fill="#f8fafc" stroke="#475569" d="M446,-117C446,-117 303,-117 303,-117 297,-117 291,-111 291,-105 291,-105 291,-93 291,-93 291,-87 297,-81 303,-81 303,-81 446,-81 446,-81 452,-81 458,-87 458,-93 458,-93 458,-105 458,-105 458,-111 452,-117 446,-117"/>
<text text-anchor="middle" x="374.5" y="-96.8" font-family="Arial" font-size="9.00">Completed&#45;run export / reconciliation</text>
</g>
<!-- Tele&#45;&gt;Export -->
<g id="edge6" class="edge">
<title>Tele&#45;&gt;Export</title>
<path fill="none" stroke="#64748b" d="M136.65,-99C175.26,-99 234.62,-99 284.26,-99"/>
<polygon fill="#64748b" stroke="#64748b" points="284.38,-101.28 290.88,-99 284.38,-96.73 284.38,-101.28"/>
</g>
<!-- Manifest -->
<g id="node6" class="node">
<title>Manifest</title>
<path fill="#f8fafc" stroke="#475569" d="M639.5,-52C639.5,-52 548.5,-52 548.5,-52 542.5,-52 536.5,-46 536.5,-40 536.5,-40 536.5,-28 536.5,-28 536.5,-22 542.5,-16 548.5,-16 548.5,-16 639.5,-16 639.5,-16 645.5,-16 651.5,-22 651.5,-28 651.5,-28 651.5,-40 651.5,-40 651.5,-46 645.5,-52 639.5,-52"/>
<text text-anchor="middle" x="594" y="-31.8" font-family="Arial" font-size="9.00">Source/replay manifests</text>
</g>
<!-- Record -->
<g id="node7" class="node">
<title>Record</title>
<path fill="#f8fafc" stroke="#475569" d="M667,-247C667,-247 521,-247 521,-247 515,-247 509,-241 509,-235 509,-235 509,-223 509,-223 509,-217 515,-211 521,-211 521,-211 667,-211 667,-211 673,-211 679,-217 679,-223 679,-223 679,-235 679,-235 679,-241 673,-247 667,-247"/>
<text text-anchor="middle" x="594" y="-226.8" font-family="Arial" font-size="9.00">Questions, evidence, claims, answers</text>
</g>
<!-- Policy -->
<g id="node8" class="node">
<title>Policy</title>
<path fill="#f8fafc" stroke="#475569" d="M662,-182C662,-182 526,-182 526,-182 520,-182 514,-176 514,-170 514,-170 514,-158 514,-158 514,-152 520,-146 526,-146 526,-146 662,-146 662,-146 668,-146 674,-152 674,-158 674,-158 674,-170 674,-170 674,-176 668,-182 662,-182"/>
<text text-anchor="middle" x="594" y="-161.8" font-family="Arial" font-size="9.00">Agents, workflows, policies, fixtures</text>
</g>
<!-- Pub -->
<g id="node9" class="node">
<title>Pub</title>
<path fill="#f8fafc" stroke="#475569" d="M655.5,-117C655.5,-117 532.5,-117 532.5,-117 526.5,-117 520.5,-111 520.5,-105 520.5,-105 520.5,-93 520.5,-93 520.5,-87 526.5,-81 532.5,-81 532.5,-81 655.5,-81 655.5,-81 661.5,-81 667.5,-87 667.5,-93 667.5,-93 667.5,-105 667.5,-105 667.5,-111 661.5,-117 655.5,-117"/>
<text text-anchor="middle" x="594" y="-96.8" font-family="Arial" font-size="9.00">Documents + publication history</text>
</g>
<!-- Check&#45;&gt;Record -->
<g id="edge5" class="edge">
<title>Check&#45;&gt;Record</title>
<path fill="none" stroke="#64748b" d="M444.02,-229C462.48,-229 482.74,-229 502.21,-229"/>
<polygon fill="#64748b" stroke="#64748b" points="502.28,-231.28 508.78,-229 502.28,-226.73 502.28,-231.28"/>
</g>
<!-- Export&#45;&gt;Manifest -->
<g id="edge7" class="edge">
<title>Export&#45;&gt;Manifest</title>
<path fill="none" stroke="#64748b" d="M435.8,-80.98C465.14,-72.21 500.4,-61.67 530.08,-52.8"/>
<polygon fill="#64748b" stroke="#64748b" points="530.75,-54.98 536.33,-50.94 529.45,-50.62 530.75,-54.98"/>
</g>
<!-- Export&#45;&gt;Record -->
<g id="edge8" class="edge">
<title>Export&#45;&gt;Record</title>
<path fill="none" stroke="#64748b" d="M394.5,-117.14C417.93,-138.68 459.73,-174.52 501,-197 508.69,-201.19 517.04,-205 525.46,-208.4"/>
<polygon fill="#64748b" stroke="#64748b" points="525.02,-210.67 531.9,-210.92 526.68,-206.43 525.02,-210.67"/>
</g>
<!-- Export&#45;&gt;Policy -->
<g id="edge9" class="edge">
<title>Export&#45;&gt;Policy</title>
<path fill="none" stroke="#64748b" d="M435.8,-117.02C463.85,-125.4 497.31,-135.4 526.13,-144.02"/>
<polygon fill="#64748b" stroke="#64748b" points="525.71,-146.26 532.59,-145.95 527.01,-141.9 525.71,-146.26"/>
</g>
<!-- Export&#45;&gt;Pub -->
<g id="edge10" class="edge">
<title>Export&#45;&gt;Pub</title>
<path fill="none" stroke="#64748b" d="M458.04,-99C476.34,-99 495.7,-99 513.86,-99"/>
<polygon fill="#64748b" stroke="#64748b" points="513.99,-101.28 520.49,-99 513.99,-96.73 513.99,-101.28"/>
</g>
</g>
</svg>
