<svg xmlns="http://www.w3.org/2000/svg" viewBox="0 0 1024 1024" role="img" aria-label="Ultradyn Docs">
  <defs>
    <linearGradient id="background" x1="180" y1="100" x2="850" y2="930" gradientUnits="userSpaceOnUse">
      <stop offset="0" stop-color="#318b7f"/>
      <stop offset="0.52" stop-color="#1b756c"/>
      <stop offset="1" stop-color="#125c55"/>
    </linearGradient>
    <linearGradient id="spark" x1="300" y1="260" x2="735" y2="745" gradientUnits="userSpaceOnUse">
      <stop offset="0" stop-color="#ffffff"/>
      <stop offset="1" stop-color="#d8f0e9"/>
    </linearGradient>
    <filter id="shadow" x="-20%" y="-20%" width="140%" height="140%">
      <feDropShadow dx="0" dy="24" stdDeviation="30" flood-color="#0b3f3a" flood-opacity="0.28"/>
    </filter>
  </defs>
  <rect x="52" y="52" width="920" height="920" rx="220" fill="url(#background)"/>
  <path d="M512 202c19 129 83 193 212 212-129 19-193 83-212 212-19-129-83-193-212-212 129-19 193-83 212-212Z" fill="url(#spark)" filter="url(#shadow)"/>
  <path d="M720 568c10 70 45 105 115 115-70 10-105 45-115 115-10-70-45-105-115-115 70-10 105-45 115-115Z" fill="#bde2d7"/>
  <path d="M302 610c8 55 36 83 91 91-55 8-83 36-91 91-8-55-36-83-91-91 55-8 83-36 91-91Z" fill="#83bea9"/>
</svg>
