<?xml version="1.0" encoding="UTF-8" standalone="no"?>
<!DOCTYPE svg PUBLIC "-//W3C//DTD SVG 1.1//EN"
 "http://www.w3.org/Graphics/SVG/1.1/DTD/svg11.dtd">
<!-- Generated by graphviz version 2.42.4 (0)
 -->
<!-- Title: G Pages: 1 -->
<svg width="3417pt" height="883pt"
 viewBox="0.00 0.00 3416.80 882.80" xmlns="http://www.w3.org/2000/svg" xmlns:xlink="http://www.w3.org/1999/xlink">
<g id="graph0" class="graph" transform="scale(1 1) rotate(0) translate(14.4 868.4)">
<title>G</title>
<!-- WP&#45;00 -->
<g id="node1" class="node">
<title>WP&#45;00</title>
<path fill="#e0e7ff" stroke="#475569" d="M139,-291C139,-291 12,-291 12,-291 6,-291 0,-285 0,-279 0,-279 0,-267 0,-267 0,-261 6,-255 12,-255 12,-255 139,-255 139,-255 145,-255 151,-261 151,-267 151,-267 151,-279 151,-279 151,-285 145,-291 139,-291"/>
<text text-anchor="middle" x="75.5" y="-275.6" font-family="Arial" font-size="8.00">WP&#45;00</text>
<text text-anchor="middle" x="75.5" y="-266.6" font-family="Arial" font-size="8.00">Architecture baseline &amp; decision control</text>
</g>
<!-- WP&#45;01 -->
<g id="node2" class="node">
<title>WP&#45;01</title>
<path fill="#e0e7ff" stroke="#475569" d="M340,-291C340,-291 210,-291 210,-291 204,-291 198,-285 198,-279 198,-279 198,-267 198,-267 198,-261 204,-255 210,-255 210,-255 340,-255 340,-255 346,-255 352,-261 352,-267 352,-267 352,-279 352,-279 352,-285 346,-291 340,-291"/>
<text text-anchor="middle" x="275" y="-275.6" font-family="Arial" font-size="8.00">WP&#45;01</text>
<text text-anchor="middle" x="275" y="-266.6" font-family="Arial" font-size="8.00">Schema, contract, &amp; validation toolchain</text>
</g>
<!-- WP&#45;00&#45;&gt;WP&#45;01 -->
<g id="edge1" class="edge">
<title>WP&#45;00&#45;&gt;WP&#45;01</title>
<path fill="none" stroke="#64748b" d="M151.17,-273C164.55,-273 178.56,-273 192.13,-273"/>
<polygon fill="#64748b" stroke="#64748b" points="192.42,-274.93 197.92,-273 192.41,-271.08 192.42,-274.93"/>
</g>
<!-- WP&#45;02 -->
<g id="node3" class="node">
<title>WP&#45;02</title>
<path fill="#e0e7ff" stroke="#475569" d="M540,-209C540,-209 411,-209 411,-209 405,-209 399,-203 399,-197 399,-197 399,-185 399,-185 399,-179 405,-173 411,-173 411,-173 540,-173 540,-173 546,-173 552,-179 552,-185 552,-185 552,-197 552,-197 552,-203 546,-209 540,-209"/>
<text text-anchor="middle" x="475.5" y="-193.6" font-family="Arial" font-size="8.00">WP&#45;02</text>
<text text-anchor="middle" x="475.5" y="-184.6" font-family="Arial" font-size="8.00">Evaluation baseline &amp; corpus laboratory</text>
</g>
<!-- WP&#45;01&#45;&gt;WP&#45;02 -->
<g id="edge2" class="edge">
<title>WP&#45;01&#45;&gt;WP&#45;02</title>
<path fill="none" stroke="#64748b" d="M320.05,-254.8C351.39,-241.86 393.48,-224.47 425.81,-211.11"/>
<polygon fill="#64748b" stroke="#64748b" points="426.56,-212.89 430.91,-209.01 425.09,-209.33 426.56,-212.89"/>
</g>
<!-- WP&#45;10 -->
<g id="node4" class="node">
<title>WP&#45;10</title>
<path fill="#dbeafe" stroke="#475569" d="M709,-327C709,-327 611,-327 611,-327 605,-327 599,-321 599,-315 599,-315 599,-303 599,-303 599,-297 605,-291 611,-291 611,-291 709,-291 709,-291 715,-291 721,-297 721,-303 721,-303 721,-315 721,-315 721,-321 715,-327 709,-327"/>
<text text-anchor="middle" x="660" y="-311.6" font-family="Arial" font-size="8.00">WP&#45;10</text>
<text text-anchor="middle" x="660" y="-302.6" font-family="Arial" font-size="8.00">Source intake &amp; replay custody</text>
</g>
<!-- WP&#45;01&#45;&gt;WP&#45;10 -->
<g id="edge3" class="edge">
<title>WP&#45;01&#45;&gt;WP&#45;10</title>
<path fill="none" stroke="#64748b" d="M352.13,-280.16C422.57,-286.78 526.23,-296.52 593.18,-302.81"/>
<polygon fill="#64748b" stroke="#64748b" points="593.08,-304.74 598.74,-303.34 593.44,-300.9 593.08,-304.74"/>
</g>
<!-- WP&#45;20 -->
<g id="node8" class="node">
<title>WP&#45;20</title>
<path fill="#dcfce7" stroke="#475569" d="M1315,-385C1315,-385 1191,-385 1191,-385 1185,-385 1179,-379 1179,-373 1179,-373 1179,-361 1179,-361 1179,-355 1185,-349 1191,-349 1191,-349 1315,-349 1315,-349 1321,-349 1327,-355 1327,-361 1327,-361 1327,-373 1327,-373 1327,-379 1321,-385 1315,-385"/>
<text text-anchor="middle" x="1253" y="-369.6" font-family="Arial" font-size="8.00">WP&#45;20</text>
<text text-anchor="middle" x="1253" y="-360.6" font-family="Arial" font-size="8.00">Question &amp; coverage&#45;obligation model</text>
</g>
<!-- WP&#45;01&#45;&gt;WP&#45;20 -->
<g id="edge9" class="edge">
<title>WP&#45;01&#45;&gt;WP&#45;20</title>
<path fill="none" stroke="#64748b" d="M304,-291.14C365.55,-329.23 518.35,-414 659,-414 659,-414 659,-414 841.5,-414 970.89,-414 1004.01,-413.99 1132,-395 1146.98,-392.78 1162.86,-389.64 1177.98,-386.27"/>
<polygon fill="#64748b" stroke="#64748b" points="1178.58,-388.11 1183.52,-385.02 1177.73,-384.35 1178.58,-388.11"/>
</g>
<!-- WP&#45;71 -->
<g id="node27" class="node">
<title>WP&#45;71</title>
<path fill="#e2e8f0" stroke="#475569" d="M2509,-254C2509,-254 2348,-254 2348,-254 2342,-254 2336,-248 2336,-242 2336,-242 2336,-230 2336,-230 2336,-224 2342,-218 2348,-218 2348,-218 2509,-218 2509,-218 2515,-218 2521,-224 2521,-230 2521,-230 2521,-242 2521,-242 2521,-248 2515,-254 2509,-254"/>
<text text-anchor="middle" x="2428.5" y="-238.6" font-family="Arial" font-size="8.00">WP&#45;71</text>
<text text-anchor="middle" x="2428.5" y="-229.6" font-family="Arial" font-size="8.00">Workflow orchestration, concurrency, &amp; recovery</text>
</g>
<!-- WP&#45;01&#45;&gt;WP&#45;71 -->
<g id="edge62" class="edge">
<title>WP&#45;01&#45;&gt;WP&#45;71</title>
<path fill="none" stroke="#64748b" d="M352.06,-258.1C532.42,-222.99 976.17,-138 1045,-138 1045,-138 1045,-138 1614,-138 1875.06,-138 2179.88,-188.36 2331.56,-216.88"/>
<polygon fill="#64748b" stroke="#64748b" points="2331.58,-218.84 2337.34,-217.97 2332.29,-215.06 2331.58,-218.84"/>
</g>
<!-- WP&#45;02&#45;&gt;WP&#45;10 -->
<g id="edge4" class="edge">
<title>WP&#45;02&#45;&gt;WP&#45;10</title>
<path fill="none" stroke="#64748b" d="M504.62,-209.18C537.4,-230.38 591.51,-265.36 626.18,-287.78"/>
<polygon fill="#64748b" stroke="#64748b" points="625.49,-289.62 631.15,-290.99 627.58,-286.39 625.49,-289.62"/>
</g>
<!-- WP&#45;30 -->
<g id="node12" class="node">
<title>WP&#45;30</title>
<path fill="#fef3c7" stroke="#475569" d="M1666,-213C1666,-213 1560,-213 1560,-213 1554,-213 1548,-207 1548,-201 1548,-201 1548,-189 1548,-189 1548,-183 1554,-177 1560,-177 1560,-177 1666,-177 1666,-177 1672,-177 1678,-183 1678,-189 1678,-189 1678,-201 1678,-201 1678,-207 1672,-213 1666,-213"/>
<text text-anchor="middle" x="1613" y="-197.6" font-family="Arial" font-size="8.00">WP&#45;30</text>
<text text-anchor="middle" x="1613" y="-188.6" font-family="Arial" font-size="8.00">Researcher agent &amp; source tools</text>
</g>
<!-- WP&#45;02&#45;&gt;WP&#45;30 -->
<g id="edge19" class="edge">
<title>WP&#45;02&#45;&gt;WP&#45;30</title>
<path fill="none" stroke="#64748b" d="M552.24,-186.05C625.65,-181.68 740.16,-176 839.5,-176 839.5,-176 839.5,-176 1254,-176 1354.24,-176 1470.05,-183.52 1542.16,-189.1"/>
<polygon fill="#64748b" stroke="#64748b" points="1542.07,-191.02 1547.71,-189.53 1542.37,-187.18 1542.07,-191.02"/>
</g>
<!-- WP&#45;31 -->
<g id="node13" class="node">
<title>WP&#45;31</title>
<path fill="#fef3c7" stroke="#475569" d="M1827.5,-270C1827.5,-270 1763.5,-270 1763.5,-270 1757.5,-270 1751.5,-264 1751.5,-258 1751.5,-258 1751.5,-246 1751.5,-246 1751.5,-240 1757.5,-234 1763.5,-234 1763.5,-234 1827.5,-234 1827.5,-234 1833.5,-234 1839.5,-240 1839.5,-246 1839.5,-246 1839.5,-258 1839.5,-258 1839.5,-264 1833.5,-270 1827.5,-270"/>
<text text-anchor="middle" x="1795.5" y="-254.6" font-family="Arial" font-size="8.00">WP&#45;31</text>
<text text-anchor="middle" x="1795.5" y="-245.6" font-family="Arial" font-size="8.00">Evidence Critic agent</text>
</g>
<!-- WP&#45;02&#45;&gt;WP&#45;31 -->
<g id="edge22" class="edge">
<title>WP&#45;02&#45;&gt;WP&#45;31</title>
<path fill="none" stroke="#64748b" d="M552.19,-198.59C625.56,-205.29 740.04,-214 839.5,-214 839.5,-214 839.5,-214 1047,-214 1310.82,-214 1626.33,-237.9 1745.62,-247.79"/>
<polygon fill="#64748b" stroke="#64748b" points="1745.51,-249.71 1751.15,-248.25 1745.82,-245.88 1745.51,-249.71"/>
</g>
<!-- WP&#45;72 -->
<g id="node28" class="node">
<title>WP&#45;72</title>
<path fill="#e2e8f0" stroke="#475569" d="M2729,-107C2729,-107 2599,-107 2599,-107 2593,-107 2587,-101 2587,-95 2587,-95 2587,-83 2587,-83 2587,-77 2593,-71 2599,-71 2599,-71 2729,-71 2729,-71 2735,-71 2741,-77 2741,-83 2741,-83 2741,-95 2741,-95 2741,-101 2735,-107 2729,-107"/>
<text text-anchor="middle" x="2664" y="-91.6" font-family="Arial" font-size="8.00">WP&#45;72</text>
<text text-anchor="middle" x="2664" y="-82.6" font-family="Arial" font-size="8.00">Observability, cost, &amp; cache optimization</text>
</g>
<!-- WP&#45;02&#45;&gt;WP&#45;72 -->
<g id="edge65" class="edge">
<title>WP&#45;02&#45;&gt;WP&#45;72</title>
<path fill="none" stroke="#64748b" d="M494.1,-172.96C516.66,-150.68 557.8,-112.83 599,-89 697.66,-31.94 725.53,0 839.5,0 839.5,0 839.5,0 2205.5,0 2346.74,0 2383.56,-5.48 2521,-38 2553.14,-45.61 2588.07,-58.09 2615.24,-68.81"/>
<polygon fill="#64748b" stroke="#64748b" points="2614.75,-70.68 2620.57,-70.92 2616.17,-67.1 2614.75,-70.68"/>
</g>
<!-- WP&#45;80 -->
<g id="node29" class="node">
<title>WP&#45;80</title>
<path fill="#f3e8ff" stroke="#475569" d="M2748,-237C2748,-237 2580,-237 2580,-237 2574,-237 2568,-231 2568,-225 2568,-225 2568,-213 2568,-213 2568,-207 2574,-201 2580,-201 2580,-201 2748,-201 2748,-201 2754,-201 2760,-207 2760,-213 2760,-213 2760,-225 2760,-225 2760,-231 2754,-237 2748,-237"/>
<text text-anchor="middle" x="2664" y="-221.6" font-family="Arial" font-size="8.00">WP&#45;80</text>
<text text-anchor="middle" x="2664" y="-212.6" font-family="Arial" font-size="8.00">Comprehensive automated &amp; adversarial test suite</text>
</g>
<!-- WP&#45;02&#45;&gt;WP&#45;80 -->
<g id="edge68" class="edge">
<title>WP&#45;02&#45;&gt;WP&#45;80</title>
<path fill="none" stroke="#64748b" d="M509.91,-172.78C572.58,-140.35 712.9,-76 839.5,-76 839.5,-76 839.5,-76 2205.5,-76 2367.54,-76 2547.77,-158.74 2624.77,-198.34"/>
<polygon fill="#64748b" stroke="#64748b" points="2623.92,-200.07 2629.69,-200.89 2625.69,-196.65 2623.92,-200.07"/>
</g>
<!-- WP&#45;11 -->
<g id="node5" class="node">
<title>WP&#45;11</title>
<path fill="#dbeafe" stroke="#475569" d="M901,-332C901,-332 780,-332 780,-332 774,-332 768,-326 768,-320 768,-320 768,-308 768,-308 768,-302 774,-296 780,-296 780,-296 901,-296 901,-296 907,-296 913,-302 913,-308 913,-308 913,-320 913,-320 913,-326 907,-332 901,-332"/>
<text text-anchor="middle" x="840.5" y="-316.6" font-family="Arial" font-size="8.00">WP&#45;11</text>
<text text-anchor="middle" x="840.5" y="-307.6" font-family="Arial" font-size="8.00">Extraction &amp; qualified representations</text>
</g>
<!-- WP&#45;10&#45;&gt;WP&#45;11 -->
<g id="edge5" class="edge">
<title>WP&#45;10&#45;&gt;WP&#45;11</title>
<path fill="none" stroke="#64748b" d="M721.43,-310.69C734.44,-311.06 748.37,-311.45 761.92,-311.83"/>
<polygon fill="#64748b" stroke="#64748b" points="762.16,-313.76 767.71,-311.99 762.27,-309.91 762.16,-313.76"/>
</g>
<!-- WP&#45;13 -->
<g id="node7" class="node">
<title>WP&#45;13</title>
<path fill="#dbeafe" stroke="#475569" d="M1113.5,-386C1113.5,-386 978.5,-386 978.5,-386 972.5,-386 966.5,-380 966.5,-374 966.5,-374 966.5,-362 966.5,-362 966.5,-356 972.5,-350 978.5,-350 978.5,-350 1113.5,-350 1113.5,-350 1119.5,-350 1125.5,-356 1125.5,-362 1125.5,-362 1125.5,-374 1125.5,-374 1125.5,-380 1119.5,-386 1113.5,-386"/>
<text text-anchor="middle" x="1046" y="-370.6" font-family="Arial" font-size="8.00">WP&#45;13</text>
<text text-anchor="middle" x="1046" y="-361.6" font-family="Arial" font-size="8.00">Data policy &amp; source access enforcement</text>
</g>
<!-- WP&#45;10&#45;&gt;WP&#45;13 -->
<g id="edge7" class="edge">
<title>WP&#45;10&#45;&gt;WP&#45;13</title>
<path fill="none" stroke="#64748b" d="M713.83,-327.01C730.94,-332.24 750.12,-337.49 768,-341 831.94,-353.56 905.39,-360.38 960.59,-364.02"/>
<polygon fill="#64748b" stroke="#64748b" points="960.59,-365.95 966.21,-364.38 960.84,-362.11 960.59,-365.95"/>
</g>
<!-- WP&#45;12 -->
<g id="node6" class="node">
<title>WP&#45;12</title>
<path fill="#dbeafe" stroke="#475569" d="M1120,-332C1120,-332 972,-332 972,-332 966,-332 960,-326 960,-320 960,-320 960,-308 960,-308 960,-302 966,-296 972,-296 972,-296 1120,-296 1120,-296 1126,-296 1132,-302 1132,-308 1132,-308 1132,-320 1132,-320 1132,-326 1126,-332 1120,-332"/>
<text text-anchor="middle" x="1046" y="-316.6" font-family="Arial" font-size="8.00">WP&#45;12</text>
<text text-anchor="middle" x="1046" y="-307.6" font-family="Arial" font-size="8.00">Structural unitization, maps, &amp; lexical retrieval</text>
</g>
<!-- WP&#45;11&#45;&gt;WP&#45;12 -->
<g id="edge6" class="edge">
<title>WP&#45;11&#45;&gt;WP&#45;12</title>
<path fill="none" stroke="#64748b" d="M913.25,-314C926.46,-314 940.42,-314 954.11,-314"/>
<polygon fill="#64748b" stroke="#64748b" points="954.46,-315.93 959.96,-314 954.46,-312.08 954.46,-315.93"/>
</g>
<!-- WP&#45;11&#45;&gt;WP&#45;13 -->
<g id="edge8" class="edge">
<title>WP&#45;11&#45;&gt;WP&#45;13</title>
<path fill="none" stroke="#64748b" d="M909.55,-332.06C929.49,-337.35 951.37,-343.16 971.63,-348.53"/>
<polygon fill="#64748b" stroke="#64748b" points="971.21,-350.41 977.02,-349.96 972.2,-346.69 971.21,-350.41"/>
</g>
<!-- WP&#45;12&#45;&gt;WP&#45;20 -->
<g id="edge10" class="edge">
<title>WP&#45;12&#45;&gt;WP&#45;20</title>
<path fill="none" stroke="#64748b" d="M1116.69,-332.02C1136,-337.01 1157.05,-342.45 1176.66,-347.52"/>
<polygon fill="#64748b" stroke="#64748b" points="1176.35,-349.43 1182.15,-348.94 1177.31,-345.7 1176.35,-349.43"/>
</g>
<!-- WP&#45;21 -->
<g id="node9" class="node">
<title>WP&#45;21</title>
<path fill="#dcfce7" stroke="#475569" d="M1489,-338C1489,-338 1386,-338 1386,-338 1380,-338 1374,-332 1374,-326 1374,-326 1374,-314 1374,-314 1374,-308 1380,-302 1386,-302 1386,-302 1489,-302 1489,-302 1495,-302 1501,-308 1501,-314 1501,-314 1501,-326 1501,-326 1501,-332 1495,-338 1489,-338"/>
<text text-anchor="middle" x="1437.5" y="-322.6" font-family="Arial" font-size="8.00">WP&#45;21</text>
<text text-anchor="middle" x="1437.5" y="-313.6" font-family="Arial" font-size="8.00">Evidence packet &amp; verdict model</text>
</g>
<!-- WP&#45;12&#45;&gt;WP&#45;21 -->
<g id="edge11" class="edge">
<title>WP&#45;12&#45;&gt;WP&#45;21</title>
<path fill="none" stroke="#64748b" d="M1132.48,-315.32C1203.23,-316.41 1302.44,-317.93 1368.04,-318.95"/>
<polygon fill="#64748b" stroke="#64748b" points="1368.36,-320.88 1373.89,-319.04 1368.42,-317.03 1368.36,-320.88"/>
</g>
<!-- WP&#45;12&#45;&gt;WP&#45;30 -->
<g id="edge17" class="edge">
<title>WP&#45;12&#45;&gt;WP&#45;30</title>
<path fill="none" stroke="#64748b" d="M1132.2,-296.06C1244.1,-272.49 1438.51,-231.54 1542.18,-209.7"/>
<polygon fill="#64748b" stroke="#64748b" points="1542.67,-211.57 1547.66,-208.55 1541.88,-207.8 1542.67,-211.57"/>
</g>
<!-- WP&#45;40 -->
<g id="node16" class="node">
<title>WP&#45;40</title>
<path fill="#fae8ff" stroke="#475569" d="M2502.5,-590C2502.5,-590 2354.5,-590 2354.5,-590 2348.5,-590 2342.5,-584 2342.5,-578 2342.5,-578 2342.5,-566 2342.5,-566 2342.5,-560 2348.5,-554 2354.5,-554 2354.5,-554 2502.5,-554 2502.5,-554 2508.5,-554 2514.5,-560 2514.5,-566 2514.5,-566 2514.5,-578 2514.5,-578 2514.5,-584 2508.5,-590 2502.5,-590"/>
<text text-anchor="middle" x="2428.5" y="-574.6" font-family="Arial" font-size="8.00">WP&#45;40</text>
<text text-anchor="middle" x="2428.5" y="-565.6" font-family="Arial" font-size="8.00">Reverse Questioner &amp; source&#45;led accounting</text>
</g>
<!-- WP&#45;12&#45;&gt;WP&#45;40 -->
<g id="edge29" class="edge">
<title>WP&#45;12&#45;&gt;WP&#45;40</title>
<path fill="none" stroke="#64748b" d="M1115.33,-332.02C1121.16,-334.64 1126.81,-337.62 1132,-341 1158.4,-358.16 1157.69,-370.83 1179,-394 1291.25,-516.05 1270.68,-664 1436.5,-664 1436.5,-664 1436.5,-664 1796.5,-664 1996.2,-664 2227.77,-618.32 2347.14,-591.34"/>
<polygon fill="#64748b" stroke="#64748b" points="2347.8,-593.16 2352.74,-590.07 2346.95,-589.41 2347.8,-593.16"/>
</g>
<!-- WP&#45;52 -->
<g id="node21" class="node">
<title>WP&#45;52</title>
<path fill="#fee2e2" stroke="#475569" d="M3183.5,-815C3183.5,-815 3059.5,-815 3059.5,-815 3053.5,-815 3047.5,-809 3047.5,-803 3047.5,-803 3047.5,-791 3047.5,-791 3047.5,-785 3053.5,-779 3059.5,-779 3059.5,-779 3183.5,-779 3183.5,-779 3189.5,-779 3195.5,-785 3195.5,-791 3195.5,-791 3195.5,-803 3195.5,-803 3195.5,-809 3189.5,-815 3183.5,-815"/>
<text text-anchor="middle" x="3121.5" y="-799.6" font-family="Arial" font-size="8.00">WP&#45;52</text>
<text text-anchor="middle" x="3121.5" y="-790.6" font-family="Arial" font-size="8.00">Incremental re&#45;ingestion &amp; invalidation</text>
</g>
<!-- WP&#45;12&#45;&gt;WP&#45;52 -->
<g id="edge43" class="edge">
<title>WP&#45;12&#45;&gt;WP&#45;52</title>
<path fill="none" stroke="#64748b" d="M1121.31,-332.09C1125.19,-334.67 1128.81,-337.63 1132,-341 1189.43,-401.67 1132.94,-453.3 1179,-523 1239.28,-614.23 1277.52,-621.54 1374,-673 1626.53,-807.7 1705.8,-854 1992,-854 1992,-854 1992,-854 2665,-854 2798.1,-854 2951.39,-829.74 3041.88,-812.88"/>
<polygon fill="#64748b" stroke="#64748b" points="3042.43,-814.73 3047.48,-811.83 3041.72,-810.95 3042.43,-814.73"/>
</g>
<!-- WP&#45;51 -->
<g id="node20" class="node">
<title>WP&#45;51</title>
<path fill="#fee2e2" stroke="#475569" d="M2277,-750C2277,-750 2132,-750 2132,-750 2126,-750 2120,-744 2120,-738 2120,-738 2120,-726 2120,-726 2120,-720 2126,-714 2132,-714 2132,-714 2277,-714 2277,-714 2283,-714 2289,-720 2289,-726 2289,-726 2289,-738 2289,-738 2289,-744 2283,-750 2277,-750"/>
<text text-anchor="middle" x="2204.5" y="-734.6" font-family="Arial" font-size="8.00">WP&#45;51</text>
<text text-anchor="middle" x="2204.5" y="-725.6" font-family="Arial" font-size="8.00">Authority, lifecycle, &amp; contradiction resolution</text>
</g>
<!-- WP&#45;13&#45;&gt;WP&#45;51 -->
<g id="edge40" class="edge">
<title>WP&#45;13&#45;&gt;WP&#45;51</title>
<path fill="none" stroke="#64748b" d="M1049.12,-386.36C1056.34,-440.13 1085,-598.46 1179,-678 1268.86,-754.04 1318.78,-740 1436.5,-740 1436.5,-740 1436.5,-740 1796.5,-740 1905.72,-740 2031.39,-737.08 2113.85,-734.77"/>
<polygon fill="#64748b" stroke="#64748b" points="2114.27,-736.69 2119.71,-734.61 2114.16,-732.84 2114.27,-736.69"/>
</g>
<!-- WP&#45;20&#45;&gt;WP&#45;21 -->
<g id="edge12" class="edge">
<title>WP&#45;20&#45;&gt;WP&#45;21</title>
<path fill="none" stroke="#64748b" d="M1324.04,-348.96C1338.5,-345.24 1353.72,-341.32 1368.12,-337.61"/>
<polygon fill="#64748b" stroke="#64748b" points="1368.97,-339.38 1373.81,-336.14 1368.01,-335.65 1368.97,-339.38"/>
</g>
<!-- WP&#45;23 -->
<g id="node11" class="node">
<title>WP&#45;23</title>
<path fill="#dcfce7" stroke="#475569" d="M2054,-460C2054,-460 1932,-460 1932,-460 1926,-460 1920,-454 1920,-448 1920,-448 1920,-436 1920,-436 1920,-430 1926,-424 1932,-424 1932,-424 2054,-424 2054,-424 2060,-424 2066,-430 2066,-436 2066,-436 2066,-448 2066,-448 2066,-454 2060,-460 2054,-460"/>
<text text-anchor="middle" x="1993" y="-444.6" font-family="Arial" font-size="8.00">WP&#45;23</text>
<text text-anchor="middle" x="1993" y="-435.6" font-family="Arial" font-size="8.00">Graph gateway &amp; dependency validity</text>
</g>
<!-- WP&#45;20&#45;&gt;WP&#45;23 -->
<g id="edge14" class="edge">
<title>WP&#45;20&#45;&gt;WP&#45;23</title>
<path fill="none" stroke="#64748b" d="M1327.29,-375.03C1342.71,-376.7 1358.89,-378.42 1374,-380 1568.25,-400.27 1796.99,-422.89 1914.18,-434.39"/>
<polygon fill="#64748b" stroke="#64748b" points="1914.01,-436.31 1919.67,-434.93 1914.39,-432.48 1914.01,-436.31"/>
</g>
<!-- WP&#45;33 -->
<g id="node15" class="node">
<title>WP&#45;33</title>
<path fill="#fef3c7" stroke="#475569" d="M2265,-300C2265,-300 2144,-300 2144,-300 2138,-300 2132,-294 2132,-288 2132,-288 2132,-276 2132,-276 2132,-270 2138,-264 2144,-264 2144,-264 2265,-264 2265,-264 2271,-264 2277,-270 2277,-276 2277,-276 2277,-288 2277,-288 2277,-294 2271,-300 2265,-300"/>
<text text-anchor="middle" x="2204.5" y="-284.6" font-family="Arial" font-size="8.00">WP&#45;33</text>
<text text-anchor="middle" x="2204.5" y="-275.6" font-family="Arial" font-size="8.00">Curiosity Planner &amp; branch scheduler</text>
</g>
<!-- WP&#45;20&#45;&gt;WP&#45;33 -->
<g id="edge25" class="edge">
<title>WP&#45;20&#45;&gt;WP&#45;33</title>
<path fill="none" stroke="#64748b" d="M1327.24,-361.29C1376.4,-357.4 1442.6,-352.07 1501,-347 1728.4,-327.27 1996.99,-301.82 2126.3,-289.43"/>
<polygon fill="#64748b" stroke="#64748b" points="2126.68,-291.33 2131.97,-288.89 2126.32,-287.5 2126.68,-291.33"/>
</g>
<!-- WP&#45;70 -->
<g id="node26" class="node">
<title>WP&#45;70</title>
<path fill="#e2e8f0" stroke="#475569" d="M3184,-682C3184,-682 3059,-682 3059,-682 3053,-682 3047,-676 3047,-670 3047,-670 3047,-658 3047,-658 3047,-652 3053,-646 3059,-646 3059,-646 3184,-646 3184,-646 3190,-646 3196,-652 3196,-658 3196,-658 3196,-670 3196,-670 3196,-676 3190,-682 3184,-682"/>
<text text-anchor="middle" x="3121.5" y="-666.6" font-family="Arial" font-size="8.00">WP&#45;70</text>
<text text-anchor="middle" x="3121.5" y="-657.6" font-family="Arial" font-size="8.00">Live dashboard &amp; operator workbench</text>
</g>
<!-- WP&#45;20&#45;&gt;WP&#45;70 -->
<g id="edge58" class="edge">
<title>WP&#45;20&#45;&gt;WP&#45;70</title>
<path fill="none" stroke="#64748b" d="M1269,-385.16C1340.19,-469.16 1654.56,-816 1992,-816 1992,-816 1992,-816 2205.5,-816 2561.23,-816 2659.18,-820.92 3000,-719 3028.57,-710.46 3059.12,-696.45 3082.31,-684.71"/>
<polygon fill="#64748b" stroke="#64748b" points="3083.42,-686.31 3087.44,-682.09 3081.67,-682.88 3083.42,-686.31"/>
</g>
<!-- WP&#45;22 -->
<g id="node10" class="node">
<title>WP&#45;22</title>
<path fill="#dcfce7" stroke="#475569" d="M1854,-506C1854,-506 1737,-506 1737,-506 1731,-506 1725,-500 1725,-494 1725,-494 1725,-482 1725,-482 1725,-476 1731,-470 1737,-470 1737,-470 1854,-470 1854,-470 1860,-470 1866,-476 1866,-482 1866,-482 1866,-494 1866,-494 1866,-500 1860,-506 1854,-506"/>
<text text-anchor="middle" x="1795.5" y="-490.6" font-family="Arial" font-size="8.00">WP&#45;22</text>
<text text-anchor="middle" x="1795.5" y="-481.6" font-family="Arial" font-size="8.00">Claim registry &amp; independent review</text>
</g>
<!-- WP&#45;21&#45;&gt;WP&#45;22 -->
<g id="edge13" class="edge">
<title>WP&#45;21&#45;&gt;WP&#45;22</title>
<path fill="none" stroke="#64748b" d="M1476.94,-338.14C1543.7,-369.64 1680.66,-434.28 1750.87,-467.41"/>
<polygon fill="#64748b" stroke="#64748b" points="1750.43,-469.33 1756.22,-469.94 1752.07,-465.85 1750.43,-469.33"/>
</g>
<!-- WP&#45;21&#45;&gt;WP&#45;23 -->
<g id="edge15" class="edge">
<title>WP&#45;21&#45;&gt;WP&#45;23</title>
<path fill="none" stroke="#64748b" d="M1501.1,-332.72C1549.47,-342.63 1618.04,-356.87 1678,-370 1758.61,-387.65 1850.61,-408.88 1914.09,-423.69"/>
<polygon fill="#64748b" stroke="#64748b" points="1913.96,-425.64 1919.75,-425.01 1914.84,-421.89 1913.96,-425.64"/>
</g>
<!-- WP&#45;21&#45;&gt;WP&#45;30 -->
<g id="edge18" class="edge">
<title>WP&#45;21&#45;&gt;WP&#45;30</title>
<path fill="none" stroke="#64748b" d="M1463.73,-301.82C1495.08,-279.24 1548.52,-240.73 1581.96,-216.64"/>
<polygon fill="#64748b" stroke="#64748b" points="1583.4,-217.97 1586.74,-213.2 1581.15,-214.85 1583.4,-217.97"/>
</g>
<!-- WP&#45;21&#45;&gt;WP&#45;31 -->
<g id="edge20" class="edge">
<title>WP&#45;21&#45;&gt;WP&#45;31</title>
<path fill="none" stroke="#64748b" d="M1501.33,-308C1571.08,-294.68 1682.19,-273.45 1745.71,-261.32"/>
<polygon fill="#64748b" stroke="#64748b" points="1746.28,-263.17 1751.33,-260.25 1745.56,-259.39 1746.28,-263.17"/>
</g>
<!-- WP&#45;21&#45;&gt;WP&#45;70 -->
<g id="edge59" class="edge">
<title>WP&#45;21&#45;&gt;WP&#45;70</title>
<path fill="none" stroke="#64748b" d="M1448.38,-338.24C1495.99,-423.42 1711.06,-778 1992,-778 1992,-778 1992,-778 2205.5,-778 2516.77,-778 2883.07,-712.23 3041.22,-680.6"/>
<polygon fill="#64748b" stroke="#64748b" points="3041.75,-682.46 3046.76,-679.49 3040.99,-678.69 3041.75,-682.46"/>
</g>
<!-- WP&#45;22&#45;&gt;WP&#45;23 -->
<g id="edge16" class="edge">
<title>WP&#45;22&#45;&gt;WP&#45;23</title>
<path fill="none" stroke="#64748b" d="M1866.25,-471.59C1881.92,-467.9 1898.63,-463.97 1914.59,-460.22"/>
<polygon fill="#64748b" stroke="#64748b" points="1915.05,-462.08 1919.96,-458.95 1914.17,-458.34 1915.05,-462.08"/>
</g>
<!-- WP&#45;32 -->
<g id="node14" class="node">
<title>WP&#45;32</title>
<path fill="#fef3c7" stroke="#475569" d="M2061,-254C2061,-254 1925,-254 1925,-254 1919,-254 1913,-248 1913,-242 1913,-242 1913,-230 1913,-230 1913,-224 1919,-218 1925,-218 1925,-218 2061,-218 2061,-218 2067,-218 2073,-224 2073,-230 2073,-230 2073,-242 2073,-242 2073,-248 2067,-254 2061,-254"/>
<text text-anchor="middle" x="1993" y="-238.6" font-family="Arial" font-size="8.00">WP&#45;32</text>
<text text-anchor="middle" x="1993" y="-229.6" font-family="Arial" font-size="8.00">Claim Extractor &amp; Claim Reviewer agents</text>
</g>
<!-- WP&#45;22&#45;&gt;WP&#45;32 -->
<g id="edge23" class="edge">
<title>WP&#45;22&#45;&gt;WP&#45;32</title>
<path fill="none" stroke="#64748b" d="M1810.56,-469.88C1845.42,-424.94 1935.79,-308.46 1974.25,-258.88"/>
<polygon fill="#64748b" stroke="#64748b" points="1975.95,-259.82 1977.8,-254.3 1972.91,-257.46 1975.95,-259.82"/>
</g>
<!-- WP&#45;22&#45;&gt;WP&#45;40 -->
<g id="edge30" class="edge">
<title>WP&#45;22&#45;&gt;WP&#45;40</title>
<path fill="none" stroke="#64748b" d="M1828.52,-506.05C1851.33,-517.95 1883.1,-532.65 1913,-540 2058.15,-575.67 2232.89,-578.42 2336.83,-576.02"/>
<polygon fill="#64748b" stroke="#64748b" points="2336.89,-577.94 2342.34,-575.88 2336.8,-574.09 2336.89,-577.94"/>
</g>
<!-- WP&#45;50 -->
<g id="node19" class="node">
<title>WP&#45;50</title>
<path fill="#fee2e2" stroke="#475569" d="M2476.5,-346C2476.5,-346 2380.5,-346 2380.5,-346 2374.5,-346 2368.5,-340 2368.5,-334 2368.5,-334 2368.5,-322 2368.5,-322 2368.5,-316 2374.5,-310 2380.5,-310 2380.5,-310 2476.5,-310 2476.5,-310 2482.5,-310 2488.5,-316 2488.5,-322 2488.5,-322 2488.5,-334 2488.5,-334 2488.5,-340 2482.5,-346 2476.5,-346"/>
<text text-anchor="middle" x="2428.5" y="-330.6" font-family="Arial" font-size="8.00">WP&#45;50</text>
<text text-anchor="middle" x="2428.5" y="-321.6" font-family="Arial" font-size="8.00">Question &amp; claim convergence</text>
</g>
<!-- WP&#45;22&#45;&gt;WP&#45;50 -->
<g id="edge37" class="edge">
<title>WP&#45;22&#45;&gt;WP&#45;50</title>
<path fill="none" stroke="#64748b" d="M1819.64,-469.82C1842.19,-453.02 1878.1,-428.66 1913,-415 1994.07,-383.28 2243.42,-350.15 2362.67,-335.61"/>
<polygon fill="#64748b" stroke="#64748b" points="2363.02,-337.5 2368.24,-334.93 2362.55,-333.68 2363.02,-337.5"/>
</g>
<!-- WP&#45;22&#45;&gt;WP&#45;51 -->
<g id="edge41" class="edge">
<title>WP&#45;22&#45;&gt;WP&#45;51</title>
<path fill="none" stroke="#64748b" d="M1805.56,-506.12C1822.37,-537.91 1861.42,-603.81 1913,-640 1973.12,-682.18 2053.45,-705.66 2114.4,-718.33"/>
<polygon fill="#64748b" stroke="#64748b" points="2114.09,-720.23 2119.86,-719.45 2114.86,-716.46 2114.09,-720.23"/>
</g>
<!-- WP&#45;60 -->
<g id="node22" class="node">
<title>WP&#45;60</title>
<path fill="#ccfbf1" stroke="#475569" d="M2273,-468C2273,-468 2136,-468 2136,-468 2130,-468 2124,-462 2124,-456 2124,-456 2124,-444 2124,-444 2124,-438 2130,-432 2136,-432 2136,-432 2273,-432 2273,-432 2279,-432 2285,-438 2285,-444 2285,-444 2285,-456 2285,-456 2285,-462 2279,-468 2273,-468"/>
<text text-anchor="middle" x="2204.5" y="-452.6" font-family="Arial" font-size="8.00">WP&#45;60</text>
<text text-anchor="middle" x="2204.5" y="-443.6" font-family="Arial" font-size="8.00">Answer composition from accepted claims</text>
</g>
<!-- WP&#45;22&#45;&gt;WP&#45;60 -->
<g id="edge47" class="edge">
<title>WP&#45;22&#45;&gt;WP&#45;60</title>
<path fill="none" stroke="#64748b" d="M1866.23,-484.68C1922.21,-481.66 2002.79,-476.51 2073,-469 2087.7,-467.43 2103.29,-465.44 2118.38,-463.35"/>
<polygon fill="#64748b" stroke="#64748b" points="2118.73,-465.24 2123.91,-462.57 2118.2,-461.43 2118.73,-465.24"/>
</g>
<!-- WP&#45;61 -->
<g id="node23" class="node">
<title>WP&#45;61</title>
<path fill="#ccfbf1" stroke="#475569" d="M2735,-460C2735,-460 2593,-460 2593,-460 2587,-460 2581,-454 2581,-448 2581,-448 2581,-436 2581,-436 2581,-430 2587,-424 2593,-424 2593,-424 2735,-424 2735,-424 2741,-424 2747,-430 2747,-436 2747,-436 2747,-448 2747,-448 2747,-454 2741,-460 2735,-460"/>
<text text-anchor="middle" x="2664" y="-444.6" font-family="Arial" font-size="8.00">WP&#45;61</text>
<text text-anchor="middle" x="2664" y="-435.6" font-family="Arial" font-size="8.00">Information architecture &amp; canonical homes</text>
</g>
<!-- WP&#45;22&#45;&gt;WP&#45;61 -->
<g id="edge50" class="edge">
<title>WP&#45;22&#45;&gt;WP&#45;61</title>
<path fill="none" stroke="#64748b" d="M1866.11,-488.7C1881.55,-488.82 1897.83,-488.93 1913,-489 1984.11,-489.31 2001.92,-490.97 2073,-489 2272.45,-483.46 2322.46,-479.84 2521,-460 2538.59,-458.24 2557.37,-456.07 2575.32,-453.85"/>
<polygon fill="#64748b" stroke="#64748b" points="2575.64,-455.75 2580.86,-453.16 2575.17,-451.93 2575.64,-455.75"/>
</g>
<!-- WP&#45;22&#45;&gt;WP&#45;70 -->
<g id="edge60" class="edge">
<title>WP&#45;22&#45;&gt;WP&#45;70</title>
<path fill="none" stroke="#64748b" d="M1817.18,-506.28C1839.29,-524.74 1876.15,-552.53 1913,-567 2312.76,-723.98 2843.11,-692.24 3041.33,-672.97"/>
<polygon fill="#64748b" stroke="#64748b" points="3041.52,-674.88 3046.81,-672.43 3041.15,-671.05 3041.52,-674.88"/>
</g>
<!-- WP&#45;23&#45;&gt;WP&#45;33 -->
<g id="edge26" class="edge">
<title>WP&#45;23&#45;&gt;WP&#45;33</title>
<path fill="none" stroke="#64748b" d="M2017.63,-423.96C2056.45,-394.31 2133.57,-335.41 2175.23,-303.59"/>
<polygon fill="#64748b" stroke="#64748b" points="2176.44,-305.09 2179.64,-300.22 2174.1,-302.03 2176.44,-305.09"/>
</g>
<!-- WP&#45;42 -->
<g id="node18" class="node">
<title>WP&#45;42</title>
<path fill="#fae8ff" stroke="#475569" d="M2973.5,-621C2973.5,-621 2833.5,-621 2833.5,-621 2827.5,-621 2821.5,-615 2821.5,-609 2821.5,-609 2821.5,-597 2821.5,-597 2821.5,-591 2827.5,-585 2833.5,-585 2833.5,-585 2973.5,-585 2973.5,-585 2979.5,-585 2985.5,-591 2985.5,-597 2985.5,-597 2985.5,-609 2985.5,-609 2985.5,-615 2979.5,-621 2973.5,-621"/>
<text text-anchor="middle" x="2903.5" y="-605.6" font-family="Arial" font-size="8.00">WP&#45;42</text>
<text text-anchor="middle" x="2903.5" y="-596.6" font-family="Arial" font-size="8.00">Operational closure &amp; assurance certificate</text>
</g>
<!-- WP&#45;23&#45;&gt;WP&#45;42 -->
<g id="edge34" class="edge">
<title>WP&#45;23&#45;&gt;WP&#45;42</title>
<path fill="none" stroke="#64748b" d="M2057.63,-460.04C2119.43,-479.14 2214.57,-512.78 2289,-558 2312.69,-572.39 2310.09,-589.16 2336,-599 2496.49,-659.96 2701.5,-639.65 2815.7,-620.55"/>
<polygon fill="#64748b" stroke="#64748b" points="2816.3,-622.4 2821.4,-619.59 2815.66,-618.61 2816.3,-622.4"/>
</g>
<!-- WP&#45;23&#45;&gt;WP&#45;50 -->
<g id="edge38" class="edge">
<title>WP&#45;23&#45;&gt;WP&#45;50</title>
<path fill="none" stroke="#64748b" d="M2066.24,-430.87C2126.59,-420.62 2214.49,-403.44 2289,-380 2310.66,-373.19 2314.83,-368.2 2336,-360 2346.52,-355.93 2357.8,-351.79 2368.73,-347.91"/>
<polygon fill="#64748b" stroke="#64748b" points="2369.52,-349.67 2374.06,-346.02 2368.23,-346.04 2369.52,-349.67"/>
</g>
<!-- WP&#45;23&#45;&gt;WP&#45;51 -->
<g id="edge42" class="edge">
<title>WP&#45;23&#45;&gt;WP&#45;51</title>
<path fill="none" stroke="#64748b" d="M2007.11,-460.14C2043.7,-510.8 2146.93,-653.69 2187.16,-709.38"/>
<polygon fill="#64748b" stroke="#64748b" points="2185.62,-710.53 2190.4,-713.87 2188.74,-708.28 2185.62,-710.53"/>
</g>
<!-- WP&#45;23&#45;&gt;WP&#45;52 -->
<g id="edge44" class="edge">
<title>WP&#45;23&#45;&gt;WP&#45;52</title>
<path fill="none" stroke="#64748b" d="M2016.31,-460.18C2040.81,-479.64 2081.77,-510.72 2120,-533 2211.24,-586.17 2235.71,-598.93 2336,-632 2587.45,-714.92 2898.41,-765.72 3041.57,-786.34"/>
<polygon fill="#64748b" stroke="#64748b" points="3041.71,-788.31 3047.43,-787.18 3042.26,-784.5 3041.71,-788.31"/>
</g>
<!-- WP&#45;23&#45;&gt;WP&#45;60 -->
<g id="edge48" class="edge">
<title>WP&#45;23&#45;&gt;WP&#45;60</title>
<path fill="none" stroke="#64748b" d="M2066.1,-444.75C2082.79,-445.39 2100.72,-446.08 2117.93,-446.73"/>
<polygon fill="#64748b" stroke="#64748b" points="2118.16,-448.67 2123.73,-446.95 2118.31,-444.82 2118.16,-448.67"/>
</g>
<!-- WP&#45;23&#45;&gt;WP&#45;71 -->
<g id="edge63" class="edge">
<title>WP&#45;23&#45;&gt;WP&#45;71</title>
<path fill="none" stroke="#64748b" d="M2029.3,-423.93C2054.42,-411.24 2089.05,-394.1 2120,-380 2194.14,-346.22 2215.34,-343.8 2289,-309 2323.82,-292.55 2362.52,-271.95 2390.14,-256.83"/>
<polygon fill="#64748b" stroke="#64748b" points="2391.27,-258.4 2395.17,-254.07 2389.42,-255.03 2391.27,-258.4"/>
</g>
<!-- WP&#45;30&#45;&gt;WP&#45;31 -->
<g id="edge21" class="edge">
<title>WP&#45;30&#45;&gt;WP&#45;31</title>
<path fill="none" stroke="#64748b" d="M1671.11,-213.04C1695.21,-220.64 1722.96,-229.41 1746.04,-236.7"/>
<polygon fill="#64748b" stroke="#64748b" points="1745.67,-238.6 1751.5,-238.42 1746.83,-234.93 1745.67,-238.6"/>
</g>
<!-- WP&#45;30&#45;&gt;WP&#45;72 -->
<g id="edge66" class="edge">
<title>WP&#45;30&#45;&gt;WP&#45;72</title>
<path fill="none" stroke="#64748b" d="M1638.2,-176.99C1696.09,-135.75 1848.46,-38 1992,-38 1992,-38 1992,-38 2205.5,-38 2346.13,-38 2381.59,-43.5 2521,-62 2540.67,-64.61 2561.73,-68.18 2581.46,-71.88"/>
<polygon fill="#64748b" stroke="#64748b" points="2581.22,-73.79 2586.98,-72.92 2581.93,-70.01 2581.22,-73.79"/>
</g>
<!-- WP&#45;30&#45;&gt;WP&#45;80 -->
<g id="edge69" class="edge">
<title>WP&#45;30&#45;&gt;WP&#45;80</title>
<path fill="none" stroke="#64748b" d="M1678.14,-191.76C1738.68,-188.81 1831.98,-184.54 1913,-182 2183.09,-173.52 2253.1,-150.59 2521,-186 2544.35,-189.09 2569.48,-194.29 2592.02,-199.66"/>
<polygon fill="#64748b" stroke="#64748b" points="2591.59,-201.54 2597.38,-200.95 2592.49,-197.79 2591.59,-201.54"/>
</g>
<!-- WP&#45;31&#45;&gt;WP&#45;32 -->
<g id="edge24" class="edge">
<title>WP&#45;31&#45;&gt;WP&#45;32</title>
<path fill="none" stroke="#64748b" d="M1839.89,-248.45C1859.78,-246.82 1884.07,-244.83 1907.36,-242.93"/>
<polygon fill="#64748b" stroke="#64748b" points="1907.61,-244.84 1912.94,-242.47 1907.3,-241 1907.61,-244.84"/>
</g>
<!-- WP&#45;31&#45;&gt;WP&#45;33 -->
<g id="edge27" class="edge">
<title>WP&#45;31&#45;&gt;WP&#45;33</title>
<path fill="none" stroke="#64748b" d="M1839.63,-256.37C1861.58,-258.52 1888.7,-261.06 1913,-263 1985.23,-268.77 2067.68,-274.04 2126.24,-277.55"/>
<polygon fill="#64748b" stroke="#64748b" points="2126.22,-279.48 2131.83,-277.89 2126.45,-275.64 2126.22,-279.48"/>
</g>
<!-- WP&#45;31&#45;&gt;WP&#45;60 -->
<g id="edge49" class="edge">
<title>WP&#45;31&#45;&gt;WP&#45;60</title>
<path fill="none" stroke="#64748b" d="M1833.7,-270.1C1909.45,-306.95 2081.19,-390.5 2161.11,-429.38"/>
<polygon fill="#64748b" stroke="#64748b" points="2160.45,-431.2 2166.24,-431.87 2162.14,-427.74 2160.45,-431.2"/>
</g>
<!-- WP&#45;31&#45;&gt;WP&#45;80 -->
<g id="edge70" class="edge">
<title>WP&#45;31&#45;&gt;WP&#45;80</title>
<path fill="none" stroke="#64748b" d="M1835.19,-233.95C1857.43,-224.54 1886.19,-213.99 1913,-209 2178.68,-159.59 2251.19,-187.85 2521,-203 2534.34,-203.75 2548.35,-204.89 2562.16,-206.23"/>
<polygon fill="#64748b" stroke="#64748b" points="2561.98,-208.14 2567.65,-206.77 2562.36,-204.31 2561.98,-208.14"/>
</g>
<!-- WP&#45;32&#45;&gt;WP&#45;33 -->
<g id="edge28" class="edge">
<title>WP&#45;32&#45;&gt;WP&#45;33</title>
<path fill="none" stroke="#64748b" d="M2073.2,-253.39C2090.48,-257.19 2108.75,-261.2 2125.97,-264.98"/>
<polygon fill="#64748b" stroke="#64748b" points="2125.98,-266.95 2131.76,-266.25 2126.8,-263.19 2125.98,-266.95"/>
</g>
<!-- WP&#45;32&#45;&gt;WP&#45;80 -->
<g id="edge71" class="edge">
<title>WP&#45;32&#45;&gt;WP&#45;80</title>
<path fill="none" stroke="#64748b" d="M2073.02,-227.99C2142.27,-221.39 2245.69,-212.56 2336,-209 2418.16,-205.76 2438.83,-206.11 2521,-209 2534.41,-209.47 2548.52,-210.19 2562.43,-211.04"/>
<polygon fill="#64748b" stroke="#64748b" points="2562.34,-212.96 2567.95,-211.38 2562.58,-209.12 2562.34,-212.96"/>
</g>
<!-- WP&#45;33&#45;&gt;WP&#45;40 -->
<g id="edge31" class="edge">
<title>WP&#45;33&#45;&gt;WP&#45;40</title>
<path fill="none" stroke="#64748b" d="M2217.5,-300.2C2234.62,-326.59 2266.47,-377.33 2289,-423 2313.79,-473.26 2295.48,-501.29 2336,-540 2340.38,-544.18 2345.33,-547.82 2350.62,-550.99"/>
<polygon fill="#64748b" stroke="#64748b" points="2349.82,-552.75 2355.56,-553.77 2351.7,-549.39 2349.82,-552.75"/>
</g>
<!-- WP&#45;41 -->
<g id="node17" class="node">
<title>WP&#45;41</title>
<path fill="#fae8ff" stroke="#475569" d="M2729,-514C2729,-514 2599,-514 2599,-514 2593,-514 2587,-508 2587,-502 2587,-502 2587,-490 2587,-490 2587,-484 2593,-478 2599,-478 2599,-478 2729,-478 2729,-478 2735,-478 2741,-484 2741,-490 2741,-490 2741,-502 2741,-502 2741,-508 2735,-514 2729,-514"/>
<text text-anchor="middle" x="2664" y="-498.6" font-family="Arial" font-size="8.00">WP&#45;41</text>
<text text-anchor="middle" x="2664" y="-489.6" font-family="Arial" font-size="8.00">Human curiosity &amp; source&#45;topic curation</text>
</g>
<!-- WP&#45;33&#45;&gt;WP&#45;41 -->
<g id="edge32" class="edge">
<title>WP&#45;33&#45;&gt;WP&#45;41</title>
<path fill="none" stroke="#64748b" d="M2235.02,-300.08C2295.51,-336.47 2438.77,-419.35 2568,-469 2574.63,-471.55 2581.61,-473.98 2588.64,-476.26"/>
<polygon fill="#64748b" stroke="#64748b" points="2588.2,-478.14 2594.02,-477.98 2589.37,-474.48 2588.2,-478.14"/>
</g>
<!-- WP&#45;33&#45;&gt;WP&#45;50 -->
<g id="edge39" class="edge">
<title>WP&#45;33&#45;&gt;WP&#45;50</title>
<path fill="none" stroke="#64748b" d="M2277.27,-296.87C2304.71,-302.56 2335.82,-309 2362.58,-314.55"/>
<polygon fill="#64748b" stroke="#64748b" points="2362.45,-316.49 2368.22,-315.72 2363.23,-312.72 2362.45,-316.49"/>
</g>
<!-- WP&#45;33&#45;&gt;WP&#45;71 -->
<g id="edge64" class="edge">
<title>WP&#45;33&#45;&gt;WP&#45;71</title>
<path fill="none" stroke="#64748b" d="M2277.27,-267.13C2295.68,-263.31 2315.75,-259.16 2335.04,-255.16"/>
<polygon fill="#64748b" stroke="#64748b" points="2335.46,-257.04 2340.46,-254.04 2334.68,-253.27 2335.46,-257.04"/>
</g>
<!-- WP&#45;33&#45;&gt;WP&#45;80 -->
<g id="edge72" class="edge">
<title>WP&#45;33&#45;&gt;WP&#45;80</title>
<path fill="none" stroke="#64748b" d="M2277.2,-282.56C2341.53,-281.92 2438.27,-278.08 2521,-263 2550.87,-257.56 2583.27,-247.82 2609.57,-238.9"/>
<polygon fill="#64748b" stroke="#64748b" points="2610.51,-240.61 2615.09,-237 2609.26,-236.97 2610.51,-240.61"/>
</g>
<!-- WP&#45;40&#45;&gt;WP&#45;41 -->
<g id="edge33" class="edge">
<title>WP&#45;40&#45;&gt;WP&#45;41</title>
<path fill="none" stroke="#64748b" d="M2484.84,-553.99C2520.18,-542.48 2566.03,-527.56 2602.37,-515.73"/>
<polygon fill="#64748b" stroke="#64748b" points="2603.02,-517.55 2607.66,-514.01 2601.83,-513.89 2603.02,-517.55"/>
</g>
<!-- WP&#45;40&#45;&gt;WP&#45;42 -->
<g id="edge35" class="edge">
<title>WP&#45;40&#45;&gt;WP&#45;42</title>
<path fill="none" stroke="#64748b" d="M2514.61,-577.58C2599.71,-583.16 2729.94,-591.69 2815.66,-597.31"/>
<polygon fill="#64748b" stroke="#64748b" points="2815.62,-599.24 2821.24,-597.67 2815.87,-595.39 2815.62,-599.24"/>
</g>
<!-- WP&#45;81 -->
<g id="node30" class="node">
<title>WP&#45;81</title>
<path fill="#f3e8ff" stroke="#475569" d="M3181,-382C3181,-382 3062,-382 3062,-382 3056,-382 3050,-376 3050,-370 3050,-370 3050,-358 3050,-358 3050,-352 3056,-346 3062,-346 3062,-346 3181,-346 3181,-346 3187,-346 3193,-352 3193,-358 3193,-358 3193,-370 3193,-370 3193,-376 3187,-382 3181,-382"/>
<text text-anchor="middle" x="3121.5" y="-366.6" font-family="Arial" font-size="8.00">WP&#45;81</text>
<text text-anchor="middle" x="3121.5" y="-357.6" font-family="Arial" font-size="8.00">Pilot corpora &amp; architecture ablations</text>
</g>
<!-- WP&#45;40&#45;&gt;WP&#45;81 -->
<g id="edge75" class="edge">
<title>WP&#45;40&#45;&gt;WP&#45;81</title>
<path fill="none" stroke="#64748b" d="M2514.75,-574.71C2632.25,-574.61 2846.8,-560.41 3000,-469 3027.32,-452.7 3023.3,-436.23 3047,-415 3059.05,-404.2 3073.47,-393.74 3086.33,-385.14"/>
<polygon fill="#64748b" stroke="#64748b" points="3087.47,-386.69 3090.99,-382.05 3085.35,-383.48 3087.47,-386.69"/>
</g>
<!-- WP&#45;41&#45;&gt;WP&#45;42 -->
<g id="edge36" class="edge">
<title>WP&#45;41&#45;&gt;WP&#45;42</title>
<path fill="none" stroke="#64748b" d="M2705.02,-514.03C2747.07,-532.97 2813.09,-562.72 2857.06,-582.53"/>
<polygon fill="#64748b" stroke="#64748b" points="2856.51,-584.39 2862.32,-584.9 2858.09,-580.88 2856.51,-584.39"/>
</g>
<!-- WP&#45;42&#45;&gt;WP&#45;52 -->
<g id="edge45" class="edge">
<title>WP&#45;42&#45;&gt;WP&#45;52</title>
<path fill="none" stroke="#64748b" d="M2924.82,-621.25C2964.72,-657.09 3053.16,-736.52 3096.13,-775.11"/>
<polygon fill="#64748b" stroke="#64748b" points="3095.01,-776.7 3100.39,-778.94 3097.58,-773.83 3095.01,-776.7"/>
</g>
<!-- WP&#45;63 -->
<g id="node25" class="node">
<title>WP&#45;63</title>
<path fill="#ccfbf1" stroke="#475569" d="M3170.5,-460C3170.5,-460 3072.5,-460 3072.5,-460 3066.5,-460 3060.5,-454 3060.5,-448 3060.5,-448 3060.5,-436 3060.5,-436 3060.5,-430 3066.5,-424 3072.5,-424 3072.5,-424 3170.5,-424 3170.5,-424 3176.5,-424 3182.5,-430 3182.5,-436 3182.5,-436 3182.5,-448 3182.5,-448 3182.5,-454 3176.5,-460 3170.5,-460"/>
<text text-anchor="middle" x="3121.5" y="-444.6" font-family="Arial" font-size="8.00">WP&#45;63</text>
<text text-anchor="middle" x="3121.5" y="-435.6" font-family="Arial" font-size="8.00">Git publication &amp; Docent import</text>
</g>
<!-- WP&#45;42&#45;&gt;WP&#45;63 -->
<g id="edge54" class="edge">
<title>WP&#45;42&#45;&gt;WP&#45;63</title>
<path fill="none" stroke="#64748b" d="M2948.35,-584.79C2965.14,-576.97 2984.07,-567.08 3000,-556 3039.12,-528.8 3078,-489.15 3100.61,-464.5"/>
<polygon fill="#64748b" stroke="#64748b" points="3102.09,-465.74 3104.37,-460.38 3099.24,-463.14 3102.09,-465.74"/>
</g>
<!-- WP&#45;42&#45;&gt;WP&#45;70 -->
<g id="edge61" class="edge">
<title>WP&#45;42&#45;&gt;WP&#45;70</title>
<path fill="none" stroke="#64748b" d="M2968.43,-621.05C2994.45,-628.4 3024.58,-636.91 3051.13,-644.41"/>
<polygon fill="#64748b" stroke="#64748b" points="3050.92,-646.35 3056.73,-645.99 3051.96,-642.64 3050.92,-646.35"/>
</g>
<!-- WP&#45;50&#45;&gt;WP&#45;61 -->
<g id="edge51" class="edge">
<title>WP&#45;50&#45;&gt;WP&#45;61</title>
<path fill="none" stroke="#64748b" d="M2466.5,-346.06C2508.47,-366.56 2576.8,-399.91 2620.81,-421.4"/>
<polygon fill="#64748b" stroke="#64748b" points="2620,-423.15 2625.79,-423.83 2621.69,-419.69 2620,-423.15"/>
</g>
<!-- WP&#45;50&#45;&gt;WP&#45;80 -->
<g id="edge73" class="edge">
<title>WP&#45;50&#45;&gt;WP&#45;80</title>
<path fill="none" stroke="#64748b" d="M2485.7,-309.94C2497.5,-305.71 2509.77,-300.97 2521,-296 2558.7,-279.32 2599.92,-256.4 2628.19,-239.92"/>
<polygon fill="#64748b" stroke="#64748b" points="2629.19,-241.56 2632.97,-237.12 2627.25,-238.24 2629.19,-241.56"/>
</g>
<!-- WP&#45;50&#45;&gt;WP&#45;81 -->
<g id="edge76" class="edge">
<title>WP&#45;50&#45;&gt;WP&#45;81</title>
<path fill="none" stroke="#64748b" d="M2488.71,-331.08C2613.89,-337.61 2905.24,-352.79 3044.17,-360.02"/>
<polygon fill="#64748b" stroke="#64748b" points="3044.27,-361.96 3049.86,-360.32 3044.47,-358.11 3044.27,-361.96"/>
</g>
<!-- WP&#45;51&#45;&gt;WP&#45;52 -->
<g id="edge46" class="edge">
<title>WP&#45;51&#45;&gt;WP&#45;52</title>
<path fill="none" stroke="#64748b" d="M2289.01,-742.56C2405,-756.71 2621.56,-781.29 2807,-792 2886.79,-796.61 2978.17,-797.57 3041.61,-797.56"/>
<polygon fill="#64748b" stroke="#64748b" points="3041.77,-799.49 3047.27,-797.56 3041.77,-795.64 3041.77,-799.49"/>
</g>
<!-- WP&#45;60&#45;&gt;WP&#45;61 -->
<g id="edge52" class="edge">
<title>WP&#45;60&#45;&gt;WP&#45;61</title>
<path fill="none" stroke="#64748b" d="M2285.19,-448.61C2366.15,-447.19 2491.23,-445 2575.04,-443.54"/>
<polygon fill="#64748b" stroke="#64748b" points="2575.29,-445.46 2580.75,-443.44 2575.22,-441.61 2575.29,-445.46"/>
</g>
<!-- WP&#45;60&#45;&gt;WP&#45;63 -->
<g id="edge55" class="edge">
<title>WP&#45;60&#45;&gt;WP&#45;63</title>
<path fill="none" stroke="#64748b" d="M2285.27,-438.39C2428.73,-419.31 2739.61,-386.18 3000,-415 3017.96,-416.99 3037.15,-420.59 3054.82,-424.54"/>
<polygon fill="#64748b" stroke="#64748b" points="3054.47,-426.43 3060.26,-425.77 3055.32,-422.67 3054.47,-426.43"/>
</g>
<!-- WP&#45;60&#45;&gt;WP&#45;80 -->
<g id="edge74" class="edge">
<title>WP&#45;60&#45;&gt;WP&#45;80</title>
<path fill="none" stroke="#64748b" d="M2246.07,-432C2271.55,-421.15 2305.28,-407.63 2336,-398 2416.55,-372.75 2446.76,-395.18 2521,-355 2574.22,-326.19 2621.83,-272.06 2646.07,-241.5"/>
<polygon fill="#64748b" stroke="#64748b" points="2647.59,-242.68 2649.48,-237.17 2644.57,-240.3 2647.59,-242.68"/>
</g>
<!-- WP&#45;62 -->
<g id="node24" class="node">
<title>WP&#45;62</title>
<path fill="#ccfbf1" stroke="#475569" d="M2988,-460C2988,-460 2819,-460 2819,-460 2813,-460 2807,-454 2807,-448 2807,-448 2807,-436 2807,-436 2807,-430 2813,-424 2819,-424 2819,-424 2988,-424 2988,-424 2994,-424 3000,-430 3000,-436 3000,-436 3000,-448 3000,-448 3000,-454 2994,-460 2988,-460"/>
<text text-anchor="middle" x="2903.5" y="-444.6" font-family="Arial" font-size="8.00">WP&#45;62</text>
<text text-anchor="middle" x="2903.5" y="-435.6" font-family="Arial" font-size="8.00">Document generation, citation, &amp; navigation review</text>
</g>
<!-- WP&#45;61&#45;&gt;WP&#45;62 -->
<g id="edge53" class="edge">
<title>WP&#45;61&#45;&gt;WP&#45;62</title>
<path fill="none" stroke="#64748b" d="M2747.07,-442C2764.56,-442 2783.24,-442 2801.36,-442"/>
<polygon fill="#64748b" stroke="#64748b" points="2801.46,-443.93 2806.96,-442 2801.46,-440.08 2801.46,-443.93"/>
</g>
<!-- WP&#45;61&#45;&gt;WP&#45;63 -->
<g id="edge56" class="edge">
<title>WP&#45;61&#45;&gt;WP&#45;63</title>
<path fill="none" stroke="#64748b" d="M2745.72,-460.07C2765.65,-463.77 2787.01,-467.12 2807,-469 2892.4,-477.05 2914.74,-478.43 3000,-469 3017.96,-467.01 3037.15,-463.41 3054.82,-459.46"/>
<polygon fill="#64748b" stroke="#64748b" points="3055.32,-461.33 3060.26,-458.23 3054.47,-457.57 3055.32,-461.33"/>
</g>
<!-- WP&#45;62&#45;&gt;WP&#45;63 -->
<g id="edge57" class="edge">
<title>WP&#45;62&#45;&gt;WP&#45;63</title>
<path fill="none" stroke="#64748b" d="M3000.18,-442C3018.53,-442 3037.37,-442 3054.52,-442"/>
<polygon fill="#64748b" stroke="#64748b" points="3054.77,-443.93 3060.27,-442 3054.77,-440.08 3054.77,-443.93"/>
</g>
<!-- WP&#45;62&#45;&gt;WP&#45;81 -->
<g id="edge77" class="edge">
<title>WP&#45;62&#45;&gt;WP&#45;81</title>
<path fill="none" stroke="#64748b" d="M2954.6,-423.91C2987.6,-411.99 3030.85,-396.37 3064.92,-384.07"/>
<polygon fill="#64748b" stroke="#64748b" points="3065.78,-385.81 3070.3,-382.13 3064.47,-382.19 3065.78,-385.81"/>
</g>
<!-- WP&#45;82 -->
<g id="node31" class="node">
<title>WP&#45;82</title>
<path fill="#f3e8ff" stroke="#475569" d="M3376,-382C3376,-382 3255,-382 3255,-382 3249,-382 3243,-376 3243,-370 3243,-370 3243,-358 3243,-358 3243,-352 3249,-346 3255,-346 3255,-346 3376,-346 3376,-346 3382,-346 3388,-352 3388,-358 3388,-358 3388,-370 3388,-370 3388,-376 3382,-382 3376,-382"/>
<text text-anchor="middle" x="3315.5" y="-366.6" font-family="Arial" font-size="8.00">WP&#45;82</text>
<text text-anchor="middle" x="3315.5" y="-357.6" font-family="Arial" font-size="8.00">Production readiness &amp; staged rollout</text>
</g>
<!-- WP&#45;63&#45;&gt;WP&#45;82 -->
<g id="edge79" class="edge">
<title>WP&#45;63&#45;&gt;WP&#45;82</title>
<path fill="none" stroke="#64748b" d="M3167.03,-423.91C3196.25,-412.04 3234.5,-396.5 3264.72,-384.22"/>
<polygon fill="#64748b" stroke="#64748b" points="3265.51,-385.98 3269.88,-382.13 3264.06,-382.41 3265.51,-385.98"/>
</g>
<!-- WP&#45;70&#45;&gt;WP&#45;82 -->
<g id="edge80" class="edge">
<title>WP&#45;70&#45;&gt;WP&#45;82</title>
<path fill="none" stroke="#64748b" d="M3134.22,-645.69C3167.57,-593.57 3262.96,-444.54 3299.76,-387.03"/>
<polygon fill="#64748b" stroke="#64748b" points="3301.59,-387.75 3302.93,-382.08 3298.35,-385.67 3301.59,-387.75"/>
</g>
<!-- WP&#45;71&#45;&gt;WP&#45;72 -->
<g id="edge67" class="edge">
<title>WP&#45;71&#45;&gt;WP&#45;72</title>
<path fill="none" stroke="#64748b" d="M2458.13,-217.97C2501.37,-190.75 2583.16,-139.26 2629.24,-110.25"/>
<polygon fill="#64748b" stroke="#64748b" points="2630.51,-111.73 2634.13,-107.17 2628.45,-108.47 2630.51,-111.73"/>
</g>
<!-- WP&#45;71&#45;&gt;WP&#45;82 -->
<g id="edge81" class="edge">
<title>WP&#45;71&#45;&gt;WP&#45;82</title>
<path fill="none" stroke="#64748b" d="M2521.07,-245.28C2665.25,-260.52 2953.74,-293.54 3196,-337 3209.48,-339.42 3223.73,-342.34 3237.51,-345.37"/>
<polygon fill="#64748b" stroke="#64748b" points="3237.18,-347.27 3242.97,-346.57 3238.01,-343.51 3237.18,-347.27"/>
</g>
<!-- WP&#45;72&#45;&gt;WP&#45;82 -->
<g id="edge82" class="edge">
<title>WP&#45;72&#45;&gt;WP&#45;82</title>
<path fill="none" stroke="#64748b" d="M2735.11,-107.02C2839.29,-135.32 3039.52,-195.56 3196,-278 3230.37,-296.11 3265.93,-323.24 3289.01,-342.17"/>
<polygon fill="#64748b" stroke="#64748b" points="3287.99,-343.83 3293.46,-345.84 3290.44,-340.86 3287.99,-343.83"/>
</g>
<!-- WP&#45;80&#45;&gt;WP&#45;81 -->
<g id="edge78" class="edge">
<title>WP&#45;80&#45;&gt;WP&#45;81</title>
<path fill="none" stroke="#64748b" d="M2721.77,-237.07C2807.5,-264.36 2969.4,-315.9 3058.25,-344.18"/>
<polygon fill="#64748b" stroke="#64748b" points="3057.91,-346.1 3063.73,-345.93 3059.08,-342.43 3057.91,-346.1"/>
</g>
<!-- WP&#45;81&#45;&gt;WP&#45;82 -->
<g id="edge83" class="edge">
<title>WP&#45;81&#45;&gt;WP&#45;82</title>
<path fill="none" stroke="#64748b" d="M3193.18,-364C3207.43,-364 3222.49,-364 3236.96,-364"/>
<polygon fill="#64748b" stroke="#64748b" points="3237.19,-365.93 3242.69,-364 3237.19,-362.08 3237.19,-365.93"/>
</g>
</g>
</svg>
